<?xml version="1.0" encoding="utf-8"?>
<!-- Generator: Adobe Illustrator 27.5.0, SVG Export Plug-In . SVG Version: 6.00 Build 0)  -->
<svg version="1.1" id="Layer_1" xmlns="http://www.w3.org/2000/svg" xmlns:xlink="http://www.w3.org/1999/xlink" x="0px" y="0px"
	 viewBox="0 0 417.275 253.17" style="enable-background:new 0 0 417.275 253.17;" xml:space="preserve">
<g>
	<g>
		<g>
			<g>
				<g>
					<path style="fill:#D2322E;" d="M282.477,244.553l-125.077-69.874c-1.465-15.5-8.591-18.931-15.492-19.667
						c-6.9-0.736-8.27,6.752-8.27,6.752L6.653,107.924l0.682,2.711l127.497,53.911c0,0,1.31-8.691,10.117-6.74
						c8.807,1.95,10.195,18.474,10.195,18.474l128.662,72.698l125.52-108.158v-2.749L282.477,244.553z"/>
					<path style="fill:#610400;" d="M283.806,249.372c-0.066,0-0.133-0.017-0.194-0.051l-128.662-72.698
						c-0.113-0.064-0.188-0.18-0.199-0.31c-0.014-0.162-1.466-16.257-9.887-18.122c-2.523-0.559-4.643-0.266-6.301,0.87
						c-2.753,1.886-3.335,5.508-3.341,5.545c-0.018,0.12-0.091,0.225-0.197,0.284c-0.106,0.06-0.234,0.067-0.346,0.019
						L7.182,110.998c-0.114-0.048-0.199-0.147-0.229-0.267l-0.682-2.711c-0.036-0.145,0.012-0.298,0.126-0.396
						c0.114-0.098,0.272-0.122,0.41-0.063l126.558,53.658c0.459-1.685,2.451-7.252,8.585-6.6c6.024,0.643,14.205,3.4,15.822,19.816
						l124.659,69.64l126.64-106.307c0.117-0.099,0.281-0.12,0.42-0.055c0.139,0.065,0.228,0.204,0.228,0.357v2.749
						c0,0.115-0.05,0.224-0.137,0.299l-125.52,108.158C283.99,249.34,283.898,249.372,283.806,249.372z M155.518,176.038
						l128.241,72.46l125.173-107.859v-1.723L282.731,244.854c-0.125,0.105-0.303,0.122-0.446,0.042l-125.077-69.874
						c-0.113-0.063-0.188-0.178-0.2-0.307c-1.498-15.845-8.878-18.644-15.141-19.313c-6.449-0.683-7.787,6.14-7.84,6.431
						c-0.022,0.117-0.096,0.219-0.201,0.276c-0.105,0.057-0.231,0.063-0.341,0.016L7.229,108.596l0.441,1.752l126.872,53.648
						c0.265-1.128,1.14-3.913,3.57-5.581c1.846-1.267,4.175-1.602,6.923-0.993C153.582,159.315,155.319,174.013,155.518,176.038z"/>
				</g>
				<g>
					<path style="fill:#9A211B;" d="M263.693,66.432L99.719,53.818L6.653,107.924l126.986,53.84c0,0,1.37-7.488,8.27-6.752
						c6.9,0.736,14.026,4.167,15.492,19.667l126.405,70.84l121.924-104.43l3.596-3.018L263.693,66.432z"/>
					<path style="fill:#610400;" d="M283.806,245.912c-0.066,0-0.132-0.017-0.193-0.051l-126.406-70.839
						c-0.113-0.063-0.188-0.178-0.2-0.307c-1.498-15.845-8.878-18.644-15.141-19.313c-6.449-0.683-7.787,6.14-7.84,6.431
						c-0.022,0.117-0.096,0.219-0.201,0.276c-0.105,0.057-0.231,0.063-0.341,0.016L6.499,108.287
						c-0.137-0.059-0.23-0.189-0.24-0.338c-0.009-0.149,0.066-0.29,0.195-0.365l93.066-54.106c0.069-0.04,0.148-0.059,0.228-0.052
						l163.974,12.613c0.05,0.004,0.099,0.017,0.144,0.039L409.5,137.717c0.12,0.059,0.201,0.174,0.217,0.306
						c0.016,0.132-0.036,0.264-0.138,0.349l-3.596,3.018L284.063,245.818C283.989,245.88,283.898,245.912,283.806,245.912z
						 M157.773,174.436l125.986,70.604l121.715-104.25l3.136-2.632L263.587,66.819L99.811,54.22L7.533,107.869l125.833,53.351
						c0.459-1.685,2.451-7.252,8.585-6.6C147.975,155.262,156.156,158.02,157.773,174.436z"/>
				</g>
			</g>
			<g>
				<path style="fill:#E6E7E8;" d="M45.857,87.349c-9.598,0.128-24.805,4.337-32.267,10.362c-0.031,0.773-0.079,1.545-0.144,2.316
					c-0.233,2.743-0.657,5.464-1.085,8.184l119.859,52.31c5-11.363,14.308-5.418,14.308-5.418
					C140.4,138,62.902,87.122,45.857,87.349z"/>
				<path style="fill:#C9C7B6;" d="M132.219,160.914c-0.053,0-0.106-0.01-0.158-0.033L12.202,108.571
					c-0.164-0.072-0.26-0.246-0.232-0.423c0.396-2.512,0.844-5.359,1.082-8.156c0.063-0.747,0.112-1.521,0.143-2.298
					c0.005-0.113,0.058-0.219,0.146-0.291c7.545-6.091,22.901-10.321,32.51-10.449l0,0c9.099-0.112,34.006,13.696,54.653,27.444
					c19.301,12.851,43.032,31.188,46.393,40.571c0.057,0.159,0.006,0.336-0.125,0.441c-0.132,0.105-0.316,0.115-0.458,0.024
					c-0.037-0.023-3.721-2.323-7.553-1.162c-2.576,0.783-4.656,2.938-6.183,6.406C132.514,160.827,132.37,160.914,132.219,160.914z
					 M12.797,107.97l119.223,52.033c1.611-3.482,3.803-5.664,6.521-6.487c2.958-0.896,5.751,0.051,7.191,0.718
					c-3.825-7.904-21.444-23.053-45.663-39.18C71.554,96.069,52.306,87.651,45.862,87.743l0,0
					c-9.418,0.126-24.42,4.233-31.886,10.163c-0.032,0.729-0.078,1.452-0.138,2.154C13.608,102.772,13.182,105.52,12.797,107.97z"/>
			</g>
			<path style="opacity:0.5;fill:#CECDCD;" d="M45.857,87.349c-9.295,0.124-23.852,4.076-31.539,9.797
				c1.108,0.132,2.207,0.344,3.295,0.587c1.278,0.285,2.544,0.617,3.812,0.94c1.35,0.343,2.71,0.572,4.08,0.822
				c8.698,1.586,17.276,3.782,25.726,6.372c7.046,2.16,14.085,4.386,21.022,6.874c6.944,2.49,13.798,5.292,20.313,8.765
				c6.403,3.413,12.477,7.499,17.743,12.511c0.187,0.178-0.086,0.436-0.279,0.279c-1.495-1.221-3.33-1.842-5.127-2.468
				c-1.932-0.674-3.849-1.41-5.758-2.146c-3.634-1.401-7.222-2.917-10.861-4.306c-3.65-1.393-7.335-2.705-11.019-4.007
				c-6.995-2.471-14.058-4.762-21.238-6.634c1.474,0.96,3.183,1.497,4.872,1.973c2.11,0.595,4.164,1.288,6.209,2.079
				c3.752,1.451,7.418,3.114,11.026,4.891c3.354,1.653,6.72,3.285,10.031,5.025c6.49,3.411,12.907,7.258,18.133,12.464
				c0.18,0.18-0.096,0.455-0.279,0.279c-1.331-1.28-2.855-2.331-4.466-3.228c-5.575-3.103-11.876-4.463-17.863-6.545
				c1.35,0.927,2.771,1.748,4.226,2.5c6.625,3.423,14.172,5.75,19.079,11.702c0.133,0.161-0.04,0.443-0.239,0.31
				c-2.977-2.001-6.478-3.065-9.911-3.986c-3.104-0.833-6.21-1.591-9.271-2.572c-2.905-0.931-5.853-1.721-8.818-2.438l53.461,23.332
				c5-11.363,14.308-5.418,14.308-5.418C140.4,138,62.902,87.122,45.857,87.349z"/>
			<g>
				<g>
					<path style="fill:#E6E7E8;" d="M278.922,237.72c1.151,1.065,2.103,2.042,2.768,2.896l125.961-103.369v-7.061l-120.778,97.833
						C286.874,228.019,282.707,233.048,278.922,237.72z"/>
					<path style="fill:#C9C7B6;" d="M281.691,241.01c-0.015,0-0.029-0.001-0.044-0.002c-0.106-0.012-0.202-0.066-0.267-0.15
						c-0.612-0.786-1.503-1.718-2.725-2.849c-0.152-0.141-0.169-0.376-0.038-0.538c3.742-4.62,7.913-9.654,7.955-9.704
						c0.017-0.02,0.035-0.038,0.055-0.055l120.778-97.832c0.118-0.096,0.281-0.115,0.418-0.049c0.137,0.065,0.224,0.204,0.224,0.356
						v7.06c0,0.118-0.053,0.23-0.144,0.305L281.941,240.921C281.87,240.979,281.781,241.01,281.691,241.01z M279.46,237.682
						c0.966,0.907,1.72,1.69,2.288,2.376L407.258,137.06v-6.048l-120.105,97.288C286.807,228.717,282.986,233.333,279.46,237.682z"
						/>
				</g>
				<g>
					<path style="fill:#FFFFFF;" d="M174.36,138.614l-27.833,16.489c14.856,0.717,68.243,12.348,104.781,58.826
						c5.686,7.233,20.544,17.248,27.615,23.792c3.784-4.672,7.952-9.701,7.952-9.701l120.778-97.833v-0.027
						C378.816,128.436,210.38,126.107,174.36,138.614z"/>
					<path style="fill:#CED5CB;" d="M278.922,238.114c-0.099,0-0.194-0.037-0.268-0.105c-2.634-2.437-6.355-5.36-10.294-8.454
						c-6.457-5.072-13.775-10.819-17.363-15.383c-15.484-19.696-36.36-35.761-60.371-46.457
						c-20.052-8.932-37.167-11.883-44.118-12.219c-0.174-0.008-0.322-0.13-0.364-0.299c-0.042-0.169,0.032-0.346,0.182-0.434
						l27.833-16.489c0.023-0.014,0.047-0.025,0.072-0.033c35.922-12.474,204.418-10.211,233.445-8.476
						c0.208,0.012,0.371,0.185,0.371,0.393c0,0.119-0.054,0.259-0.146,0.334l-120.747,97.808c-0.353,0.426-4.336,5.237-7.924,9.668
						c-0.069,0.085-0.169,0.137-0.278,0.145C278.941,238.114,278.931,238.114,278.922,238.114z M147.825,154.792
						c7.677,0.609,24.097,3.729,43.122,12.204c24.128,10.748,45.108,26.893,60.67,46.689c3.53,4.49,10.809,10.207,17.23,15.251
						c3.801,2.986,7.399,5.812,10.033,8.211c3.672-4.528,7.65-9.33,7.691-9.379c0.017-0.02,0.035-0.038,0.055-0.055l120.017-97.216
						c-31.608-1.723-196.593-3.813-232.116,8.477L147.825,154.792z"/>
				</g>
				<path style="opacity:0.5;fill:#CECDCD;" d="M150.962,154.811c5.279-0.577,15.454-1.357,32.129,2.851
					c4.913,1.24,8.182,2.383,12.819,4.417c4.709,2.065,9.326,4.286,13.805,6.816c8.808,4.974,16.856,10.878,24.669,17.273
					c7.629,6.244,15.241,12.578,23.601,17.837c2.06,1.296,4.163,2.523,6.317,3.655c2.163,1.137,4.439,2.378,6.774,3.115
					c4.917,1.551,9.7-2.126,13.689-4.55c9.097-5.528,17.855-11.594,26.458-17.857c17.458-12.711,34.404-26.106,50.8-40.161
					c7.256-6.22,14.255-12.746,21.59-18.872c-56.171-1.264-179.103-1.191-209.255,9.279l-27.833,16.489
					c0.279,0.014,0.575,0.032,0.881,0.053C148.593,155.057,149.778,154.941,150.962,154.811z"/>
			</g>
			<g>
				<path style="fill:#E6E7E8;" d="M146.526,155.102l1.363,0.134c0,0,10.465,2.72,10.465,19.442c0,0,51.817,12.746,123.336,65.937
					l5.184-12.597c-4.75-6.1-22.942-18.406-31.704-24.545C186.46,155.332,161.382,155.82,146.526,155.102z"/>
				<path style="fill:#C9C7B6;" d="M281.691,241.01c-0.084,0-0.167-0.027-0.235-0.078c-36.904-27.447-68.435-43.895-88.388-52.86
					c-21.619-9.713-34.678-12.978-34.807-13.01c-0.176-0.043-0.3-0.201-0.3-0.383c0-4.679-0.883-11.199-5.09-15.684
					c-2.372-2.529-4.776-3.288-5.055-3.369l-1.328-0.131c-0.213-0.021-0.37-0.208-0.354-0.421c0.016-0.213,0.199-0.37,0.412-0.365
					c0.509,0.025,1.031,0.048,1.565,0.072c15.274,0.679,40.839,1.815,107.286,48.37c0.974,0.683,2.065,1.442,3.241,2.26
					c9.672,6.729,24.289,16.897,28.547,22.366c0.087,0.112,0.107,0.261,0.054,0.392l-5.184,12.597
					c-0.046,0.112-0.142,0.197-0.259,0.23C281.761,241.005,281.726,241.01,281.691,241.01z M158.747,174.373
					c2.07,0.544,14.743,4.04,34.617,12.968c19.921,8.949,51.356,25.339,88.155,52.656l4.903-11.915
					c-4.374-5.426-19.285-15.799-28.234-22.025c-1.177-0.819-2.269-1.578-3.244-2.261c-63.74-44.659-89.689-47.402-105.091-48.148
					c0.993,0.54,2.272,1.409,3.555,2.767C157.73,162.992,158.708,169.558,158.747,174.373z"/>
			</g>
			<path style="opacity:0.5;fill:#CECDCD;" d="M216.193,197.187c-7.943-5.424-16.246-10.3-24.686-14.906
				c-0.205-0.112-0.058-0.405,0.152-0.36c1.849,0.396,3.684,0.857,5.501,1.382c5.671,1.637,11.203,3.837,16.43,6.591
				c-1.797-1.278-3.682-2.43-5.624-3.477c-9.629-5.191-20.397-7.896-29.885-13.378c-0.201-0.116-0.06-0.405,0.152-0.36
				c3.622,0.764,7.223,1.625,10.797,2.589c3.148,0.85,6.246,1.849,9.37,2.779c2.656,0.791,5.299,1.63,7.909,2.564
				c4.178,1.495,8.342,3.219,12.18,5.478c-1.042-0.809-2.102-1.596-3.18-2.357c-3.403-2.401-6.986-4.54-10.649-6.52
				c-3.372-1.822-6.916-3.476-9.878-5.949c-0.162-0.135,0.015-0.369,0.192-0.329c0.789,0.175,1.571,0.38,2.345,0.615
				c3.143,0.955,6.13,2.354,9.069,3.803c3.052,1.506,6.11,2.997,9.162,4.502c6.345,3.129,12.636,6.364,18.883,9.685
				c-53.257-34.115-74.65-33.798-87.905-34.438l1.363,0.134c0,0,10.465,2.72,10.465,19.442c0,0,26.366,6.49,67.435,29.509
				C222.667,201.75,219.461,199.419,216.193,197.187z"/>
			<g>
				<path style="fill:#E6E7E8;" d="M162.73,6.876L13.471,96.491c85.214,5.018,133.055,58.612,133.055,58.612l123.165-98.442
					C226.187-8.205,162.73,6.876,162.73,6.876z"/>
				<path style="fill:#C9C7B6;" d="M146.527,155.497c-0.109,0-0.217-0.045-0.294-0.132c-0.119-0.134-12.198-13.532-34.512-27.368
					c-13.102-8.125-27.118-14.808-41.658-19.866c-18.173-6.321-37.22-10.105-56.614-11.247c-0.173-0.01-0.318-0.132-0.36-0.299
					c-0.041-0.168,0.032-0.343,0.18-0.432L162.527,6.538c0.035-0.021,0.072-0.036,0.112-0.045c0.16-0.039,16.194-3.741,37.337,0.565
					c12.416,2.529,24.145,7.281,34.862,14.127c13.391,8.554,25.228,20.416,35.181,35.257c0.114,0.17,0.079,0.399-0.081,0.527
					l-123.165,98.442C146.7,155.468,146.613,155.497,146.527,155.497z M14.762,96.175c19.035,1.234,37.728,5.007,55.579,11.218
					c14.598,5.079,28.668,11.791,41.822,19.95c20.631,12.797,32.556,25.231,34.406,27.222L269.162,56.58
					c-9.845-14.602-21.529-26.282-34.728-34.717c-10.63-6.794-22.264-11.512-34.58-14.025c-20.342-4.15-35.902-0.831-36.975-0.591
					L14.762,96.175z"/>
			</g>
			<g>
				<path style="fill:#67BEE9;" d="M153.535,5.357L15.176,93.826c85.214,5.017,131.351,60.478,131.351,60.478l123.165-97.643
					C226.187-8.205,153.535,5.357,153.535,5.357z"/>
				<path style="fill:#67BEE9;" d="M242.574,27.661c-2.744,1.947-5.65,3.664-8.664,5.157c-3.627,1.796-7.414,3.274-11.302,4.401
					c-3.821,1.108-7.745,1.878-11.71,2.224c-3.774,0.33-7.591,0.27-11.337-0.315c-1.835-0.286-3.686-0.669-5.436-1.3
					c-1.772-0.639-3.539-1.425-5.039-2.581c-1.106-0.852-2.074-1.946-2.486-3.304c-0.43-1.418-0.159-2.908,0.427-4.239
					c0.822-1.868,2.193-3.489,3.63-4.915c1.473-1.462,3.111-2.754,4.842-3.896c3.616-2.388,7.638-4.143,11.763-5.443
					c2.07-0.653,4.178-1.191,6.307-1.617c-1.44-0.531-2.872-1.028-4.295-1.492c-3.704,0.992-7.335,2.252-10.852,3.792
					c-9.939,4.354-18.273,11.253-27.172,17.319c-4.266,2.908-8.674,5.636-13.364,7.811c-4.948,2.294-10.138,3.872-15.527,4.711
					c-12.487,1.943-25.141,0.894-37.714,1.153c-5.523,0.114-11.07,0.991-16.502,2.043l-4.29,2.743
					c2.05-0.203,4.101-0.39,6.154-0.558c2.163-0.177,4.328-0.333,6.495-0.461c2.127-0.125,4.257-0.223,6.387-0.279
					c1.987-0.052,3.975-0.069,5.962-0.021c1.71,0.042,3.422,0.128,5.123,0.32c1.317,0.149,2.645,0.348,3.915,0.737
					c0.836,0.256,1.747,0.601,2.363,1.249c0.492,0.518,0.659,1.199,0.449,1.884c-0.4,1.308-1.756,1.992-2.972,2.365
					c-1.954,0.601-4.072,0.679-6.102,0.671c-2.41-0.009-4.817-0.205-7.212-0.467c-2.078-0.228-4.149-0.516-6.219-0.811
					c-1.771-0.252-3.534-0.424-5.318-0.568c-3.106-0.25-6.216-0.46-9.331-0.568c-1.678-0.058-3.357-0.087-5.036-0.078l-11.277,7.211
					c11.982-2.193,24.413-1.347,36.411,0.497c15.096,2.32,29.87,6.306,44.934,8.795c7.687,1.27,15.41,2.01,23.207,1.734
					c8.026-0.284,16.007-1.498,23.786-3.482c7.837-1.999,15.471-4.774,22.805-8.179c6.937-3.221,13.465-7.088,19.9-11.202
					c5.431-3.472,10.997-7.063,16.821-10.022C251.034,34.541,246.839,30.887,242.574,27.661z M167.458,53.266
					c-0.926,1.114-2.231,1.915-3.495,2.589c-1.411,0.753-2.899,1.37-4.416,1.875c-0.656,0.218-1.319,0.371-1.998,0.497
					c-2.007,0.371-4.046,0.596-6.081,0.733c-2.389,0.161-4.81,0.203-7.192-0.077c-1.033-0.121-2.068-0.301-3.058-0.627
					c-0.791-0.261-1.58-0.618-2.201-1.185c-0.539-0.492-0.889-1.141-0.956-1.872c-0.083-0.902,0.253-1.815,0.68-2.594
					c0.594-1.084,1.693-1.827,2.772-2.368c1.38-0.692,2.883-1.134,4.391-1.437c1.193-0.24,2.408-0.394,3.626-0.451
					c2.671-0.997,5.483-1.634,8.322-1.73c2.044-0.069,4.115,0.162,6.06,0.813c0.966,0.323,1.937,0.796,2.768,1.387
					c0.546,0.388,1.074,0.864,1.373,1.474C168.568,51.342,168.162,52.42,167.458,53.266z M228.533,49.977
					c-1.717,2.266-4.388,3.634-6.945,4.733c-1.234,0.531-2.486,1.025-3.727,1.538c-1.045,0.431-2.103,0.833-3.175,1.192
					c-0.628,0.249-1.26,0.488-1.898,0.707c-2.167,0.743-4.405,1.315-6.683,1.583c-1.984,0.234-4.06,0.248-5.994-0.312
					c-1.573-0.456-3.003-1.341-3.956-2.693c-0.527-0.748-0.813-1.634-0.698-2.529c-0.047-0.186-0.054-0.387-0.016-0.596
					c0.112-0.622,0.53-1.175,0.931-1.643c1.148-1.338,2.643-2.397,4.1-3.371c1.111-0.743,2.26-1.485,3.466-2.067
					c1.286-0.62,2.656-1.106,4.011-1.548c1.64-0.535,3.314-0.969,5.009-1.293c1.687-0.322,3.397-0.536,5.113-0.614
					c1.545-0.07,3.081-0.006,4.619,0.147c1.027,0.102,2.054,0.243,3.058,0.486c0.941,0.228,1.911,0.543,2.708,1.109
					c0.688,0.489,1.197,1.177,1.266,2.038C229.814,47.978,229.193,49.105,228.533,49.977z"/>
				<path style="fill:#67BEE9;" d="M109.84,119.543c19.042-4.645,38.458-8.121,58.044-9.296c4.744-0.285,9.521-0.535,14.272-0.31
					c4.571,0.217,9.115,0.806,13.635,1.505c1.331,0.206,2.661,0.422,3.991,0.642l53.883-42.717
					c-1.785,0.155-3.568,0.343-5.344,0.587c-10.768,1.48-20.234,6.231-29.303,12.017c-4.321,2.756-8.512,5.708-12.931,8.309
					c-4.286,2.522-8.712,4.805-13.248,6.844c-8.728,3.922-17.848,6.924-27.15,9.154c-18.553,4.449-37.666,5.861-56.68,6.587
					c-6.106,0.233-12.216,0.398-18.326,0.564c4.956,2.402,9.591,4.904,13.906,7.433C106.336,120.413,108.086,119.97,109.84,119.543z
					"/>
				<path style="opacity:0.31;fill:#67BEE9;" d="M91.662,97.769c6.068-1.31,12.127-2.716,18.273-3.606
					c6.997-1.014,14.023-2.022,20.881-3.778c3.117-0.798,6.284-1.721,9.145-3.222c1.722-0.904,4.024-2.329,4.169-4.504
					c0.198-2.966-3.313-4.356-5.592-5.138c-3.96-1.357-8.176-1.992-12.317-2.51c-1.616-0.202-3.236-0.372-4.856-0.537
					c-2.666-0.271-5.31-0.757-7.971-1.08c-7.183-0.872-14.408-1.345-21.634-1.668c-7.326-0.328-14.65-0.651-21.981-0.319
					c-7.114,0.322-14.204,1.061-21.253,2.064c-0.655,0.093-1.309,0.191-1.963,0.288L15.176,93.826
					c19.404,1.142,36.78,4.901,52.048,10.024C75.276,101.469,83.456,99.54,91.662,97.769z"/>
				<path style="fill:#0084A3;" d="M146.527,154.698c-0.113,0-0.225-0.049-0.303-0.142c-3.982-4.786-16.142-16.859-33.659-28.297
					c-12.854-8.394-26.672-15.292-41.069-20.503C53.501,99.243,34.545,95.361,15.153,94.22c-0.17-0.01-0.315-0.129-0.358-0.294
					c-0.043-0.165,0.025-0.34,0.169-0.431L153.323,5.025c0.043-0.027,0.09-0.046,0.14-0.056c0.182-0.034,18.509-3.35,41.914,1.328
					c13.748,2.748,26.539,7.676,38.017,14.645c14.348,8.712,26.67,20.655,36.626,35.499c0.115,0.171,0.079,0.401-0.082,0.528
					l-123.165,97.643C146.699,154.67,146.613,154.698,146.527,154.698z M16.406,93.507c19.054,1.234,37.68,5.106,55.377,11.515
					c14.457,5.235,28.332,12.163,41.239,20.594c17.239,11.261,29.318,23.143,33.56,28.141l122.58-97.178
					c-9.851-14.602-22.016-26.36-36.16-34.952c-11.395-6.922-24.096-11.817-37.749-14.55c-22.508-4.504-40.279-1.571-41.571-1.346
					L16.406,93.507z"/>
			</g>
			<path style="opacity:0.59;fill:#B9D3E0;" d="M109.213,116.982c-9.418-6.201-20.266-9.449-30.595-13.746
				c-4.952-2.06-9.844-4.373-14.26-7.442c-2.576-1.79-5-4.122-4.616-7.53c0.345-3.065,2.531-5.703,4.622-7.813
				c2.675-2.7,5.766-4.977,8.897-7.116c3.337-2.28,6.724-4.476,10.048-6.777c5.374-3.72,10.762-7.42,16.183-11.072
				c10.806-7.28,21.744-14.373,32.932-21.053c10.294-6.147,20.737-12.489,32.1-16.468c10.267-3.595,21.13-5.417,32.006-5.426
				c9.348-0.008,18.68,1.319,27.679,3.838c-35.86-17.516-70.674-11.02-70.674-11.02L15.176,93.826
				c56.371,3.319,95.634,28.709,115.76,45.519C125.606,130.354,117.907,122.707,109.213,116.982z"/>
			<path style="opacity:0.59;fill:#B9D3E0;" d="M221.985,15.319c2.504,3.145,4.716,6.499,6.325,10.172
				c1.505,3.435,2.402,7.147,2.268,10.913c-0.147,4.12-1.529,8.243-3.72,11.722c-2.295,3.645-5.517,6.558-8.847,9.237
				c-3.876,3.119-7.887,6.071-11.87,9.05c-8.893,6.652-17.852,13.219-26.966,19.567c-8.686,6.05-17.465,12.098-26.67,17.341
				c-7.837,4.464-16.229,8.237-25.21,9.597c-4.5,0.681-9.075,0.745-13.591,0.175c-4.956-0.626-9.68-2.094-14.381-3.737
				c-9.827-3.435-19.357-7.672-29.23-10.981c-4.866-1.631-9.865-3.16-14.94-3.979c-5.381-0.868-10.824-1.315-16.267-1.547
				c-5.121-0.219-10.338-0.5-15.432,0.177c-2.245,0.299-4.574,0.731-6.895,0.894c84.326,5.534,129.968,60.383,129.968,60.383
				l123.165-97.643C255.679,35.768,238.643,23.013,221.985,15.319z"/>
			<path style="opacity:0.59;fill:#B9D3E0;" d="M259.542,43.457c-0.004,0.189-0.011,0.379-0.023,0.569
				c-0.211,3.341-1.847,6.286-3.991,8.787c-2.582,3.012-33.799,25.874-40.813,31.368c-7.253,5.681-14.464,11.418-21.745,17.063
				c-7.221,5.599-14.513,11.11-21.975,16.385c-3.833,2.71-7.711,5.356-11.644,7.919c-3.398,2.215-6.901,4.328-10.739,5.695
				c-2.903,1.034-5.976,1.571-9.059,1.317c-2.896-0.239-5.681-1.127-8.341-2.262c-7.579-3.233-14.494-7.866-21.941-11.386
				c-12.593-5.953-25.877-10.131-39.214-14.074c49.949,17.605,76.469,49.466,76.469,49.466l123.165-97.643
				C266.456,51.837,263.058,47.451,259.542,43.457z"/>
			<path style="opacity:0.59;fill:#B9D3E0;" d="M249.101,71.709c-4.628,3.795-9.423,7.376-14.177,11.009
				c-5.792,4.427-11.509,8.952-17.325,13.348c-12.086,9.135-24.404,17.972-37.085,26.266c-3.175,2.077-6.373,4.119-9.595,6.123
				c-2.932,1.823-5.768,3.796-8.732,5.569c-5.079,3.039-10.65,5.635-16.689,5.596c-6.137-0.039-11.54-2.918-16.878-5.615
				c-2.813-1.421-5.649-2.829-8.622-3.89c-0.657-0.234-1.324-0.454-1.999-0.648c18.787,13.136,28.527,24.835,28.527,24.835
				l123.165-97.643c-0.8-1.192-1.609-2.358-2.428-3.497C262.244,60.216,255.766,66.244,249.101,71.709z"/>
			<g>
				<g>
					<path style="fill:#FFFFFF;" d="M410.621,125.976c-36.84-3.257-55.477-34.733-86.841-45.847
						c-31.364-11.114-57.366,4.764-57.366,4.764l-119.888,70.21c8.7-3.934,24.46-4.971,48.115,3.411
						c31.364,11.114,61.621,58.06,96.393,64.178L410.621,125.976z"/>
					<path style="fill:#CED5CB;" d="M291.034,223.086c-0.023,0-0.046-0.002-0.068-0.006c-19.201-3.378-37.052-19.151-54.314-34.405
						c-14.435-12.755-28.07-24.803-42.142-29.79c-11.598-4.11-33.232-10.019-47.821-3.423c-0.191,0.086-0.416,0.008-0.512-0.178
						c-0.096-0.186-0.03-0.415,0.151-0.521l119.887-70.21c0.059-0.036,6.666-4.027,17.026-6.592
						c9.561-2.367,24.377-3.977,40.671,1.797c13.125,4.651,24.204,12.982,34.918,21.039c14.969,11.257,30.448,22.896,51.826,24.787
						c0.16,0.014,0.296,0.124,0.342,0.278c0.047,0.154-0.004,0.321-0.129,0.422l-119.587,96.716
						C291.211,223.056,291.123,223.086,291.034,223.086z M162.718,151.738c7.897,0,18.409,1.569,32.055,6.405
						c14.216,5.037,27.906,17.134,42.4,29.942c17.128,15.134,34.837,30.782,53.753,34.188l118.697-95.996
						c-21.103-2.168-36.434-13.696-51.267-24.85C347.69,93.405,336.66,85.111,323.649,80.5c-16.109-5.708-30.763-4.116-40.218-1.775
						c-10.244,2.536-16.747,6.464-16.811,6.504l-116.203,68.052C153.49,152.412,157.543,151.738,162.718,151.738z"/>
				</g>
			</g>
			<g style="opacity:0.5;">
				<path style="fill:#CECDCD;" d="M407.652,125.644c-36.84-3.257-52.508-34.401-83.871-45.516
					c-31.364-11.114-57.366,4.764-57.366,4.764l-119.888,70.21c8.7-3.934,26.396-10.233,50.05-1.851
					c31.364,11.114,55.526,60.059,90.298,66.177L407.652,125.644z"/>
			</g>
			<g>
				<g>
					<path style="fill:#67BEE9;" d="M407.652,123.747c-37.84-4.545-46.632-54.421-78.847-69.929
						c-32.215-15.508-59.113,2.843-59.113,2.843l-123.165,97.643c8.937-5.489,29.209-14.51,53.506-2.814
						c32.215,15.508,54.5,62.066,92.34,66.611L407.652,123.747z"/>
					<path style="fill:#67BEE9;" d="M237.656,182.452c7.043,0.014,14.207-1.641,20.881-3.605
						c11.592-3.411,22.948-8.449,35.019-9.951c7.996-0.995,16.021-1.19,24.06-0.665c7.879,0.515,15.704,1.638,23.489,2.925
						c2.371,0.392,4.739,0.82,7.109,1.238l10.509-8.601c-9.65,1.14-19.396,1.48-29.098,1.023
						c-17.277-0.814-34.1-4.316-50.387-10.076c-9.516-3.365-19.142-6.567-29.087-8.407c-10.263-1.899-20.409-1.903-30.734-0.553
						c-7.632,0.997-15.219,2.397-22.697,4.231c1.095,0.451,2.199,0.942,3.312,1.478
						C213.714,158.076,225.604,170.262,237.656,182.452z"/>
					<path style="fill:#67BEE9;" d="M351.32,72.951c-1.696,0.109-3.393,0.201-5.09,0.266c-4.464,0.169-8.937,0.191-13.401,0.002
						c-3.9-0.165-7.812-0.474-11.66-1.151c-2.725-0.479-5.6-1.096-8.029-2.481c-1.495-0.852-2.925-2.22-2.664-4.091
						c0.196-1.402,1.211-2.626,2.251-3.519c1.548-1.329,3.445-2.213,5.348-2.908c4.727-1.725,9.835-2.423,14.825-2.85
						c0.084-0.007,0.169-0.013,0.253-0.02c-1.402-0.862-2.85-1.659-4.348-2.38c-0.927-0.446-1.85-0.862-2.768-1.253
						c-5.757,2.002-11.341,4.63-16.892,6.991c-9.102,3.871-18.637,6.655-28.451,7.96c-8.962,1.192-18.039,1.07-27.031,1.852
						l-53.883,42.717c7.995,1.319,15.997,2.757,24.119,2.816c4.903,0.035,9.859-0.422,14.609-1.675
						c4.102-1.081,8.108-2.556,12.005-4.223c7.648-3.271,14.906-7.36,22.172-11.387c14.721-8.159,30.018-16.056,47.176-16.845
						c12.707-0.584,25.689,1.843,38.382,1.219C355.992,78.905,353.702,75.864,351.32,72.951z M245.217,100.739
						c-0.38,1.081-1.158,1.975-2.037,2.687c-1.058,0.858-2.274,1.501-3.525,2.027c-2.857,1.202-5.973,1.851-9.058,2.082
						c-1.362,0.102-2.739,0.119-4.099-0.03c-0.568-0.062-1.134-0.152-1.687-0.295c-0.597-0.154-1.132-0.391-1.667-0.698
						c-1.049-0.601-2.161-1.406-2.615-2.574c-0.219-0.564-0.213-1.152-0.056-1.709c-0.036-0.316-0.031-0.641,0.026-0.972
						c0.208-1.216,1.03-2.249,1.929-3.049c1.102-0.981,2.41-1.724,3.759-2.306c1.363-0.588,2.798-1.033,4.267-1.257
						c0.21-0.032,0.425-0.06,0.641-0.084c0.157-0.037,0.313-0.074,0.47-0.108c2.377-0.53,4.835-0.874,7.275-0.802
						c1.9,0.056,4.108,0.337,5.583,1.662C245.979,96.713,245.859,98.915,245.217,100.739z M294.703,78.436
						c-0.76,1.445-2.092,2.552-3.405,3.476c-1.638,1.152-3.428,2.084-5.246,2.917c-1.785,0.818-3.614,1.538-5.467,2.186
						c-1.35,0.473-2.713,0.914-4.094,1.289c-0.856,0.233-1.697,0.51-2.544,0.772c-1.304,0.404-2.613,0.792-3.931,1.146
						c-2.901,0.778-5.862,1.408-8.863,1.629c-2.789,0.205-5.721,0.066-8.335-1.014c-1.34-0.554-2.678-1.344-3.703-2.379
						c-0.818-0.827-1.408-1.899-1.329-3.092c0.082-1.242,0.783-2.349,1.568-3.274c0.813-0.957,1.772-1.815,2.773-2.573
						c1.883-1.426,4.011-2.511,6.19-3.406c2.469-1.014,5.039-1.779,7.641-2.365c2.706-0.609,5.458-1.025,8.223-1.249
						c0.036-0.003,0.072-0.005,0.109-0.008c0.95-0.245,1.904-0.477,2.864-0.682c2.405-0.512,4.851-0.899,7.311-1.005
						c2.077-0.089,4.239,0.001,6.228,0.661c1.633,0.542,3.128,1.555,3.989,3.079c0.343,0.607,0.551,1.292,0.54,1.993
						C295.212,77.203,295.011,77.85,294.703,78.436z M305.245,70.746c-0.381,1.012-1.54,1.523-2.495,1.827
						c-0.836,0.266-1.71,0.423-2.581,0.509c-0.712,0.071-1.434,0.093-2.146,0.01c-0.881-0.103-1.864-0.367-2.442-1.093
						c-1.031-1.294,0.008-2.955,1.131-3.77c0.061-0.044,0.124-0.082,0.186-0.123c0.007-0.041,0.032-0.08,0.083-0.106
						c0.177-0.088,0.357-0.168,0.539-0.243c0.427-0.2,0.874-0.336,1.332-0.413c0.981-0.208,2.002-0.225,2.988-0.033
						c1.001,0.195,2.024,0.612,2.761,1.335C305.151,69.188,305.534,69.977,305.245,70.746z"/>
					<path style="opacity:0.31;fill:#67BEE9;" d="M370.56,98.791c-5.927-0.629-11.922-0.75-17.857-0.704
						c-4.893,0.037-9.783,0.208-14.673,0.353c-5.052,0.15-10.104,0.252-15.15,0.551c-10.227,0.606-20.493,1.887-30.295,4.974
						c-4.989,1.571-9.753,3.645-14.337,6.158c-3.738,2.05-7.459,4.341-10.348,7.528c-2.198,2.425-3.926,5.597-3.227,8.963
						c0.869,4.185,4.712,7.173,8.137,9.3c7.959,4.941,17.094,7.493,26.249,9.116c9.201,1.631,18.526,2.32,27.802,3.376
						c11.159,1.27,22.315,2.55,33.452,4.006c3.528,0.461,7.054,0.939,10.579,1.423l36.761-30.088
						C391.257,121.777,380.316,111.297,370.56,98.791z"/>
					<path style="opacity:0.59;fill:#B9D3E0;" d="M255.848,174.196c3.922-1.228,7.922-2.181,11.782-3.61
						c1.939-0.719,3.884-1.531,5.619-2.67c1.258-0.826,2.681-1.994,2.899-3.585c0.256-1.868-1.31-3.528-2.68-4.557
						c-1.945-1.461-4.196-2.487-6.483-3.285c-5.574-1.943-11.543-2.692-17.398-3.18c-5.845-0.487-11.71-0.62-17.571-0.796
						c-6.799-0.204-13.584-0.54-20.389-0.592c-3.54-0.027-7.081-0.01-10.621,0.054c12.459,6.277,23.456,17.139,34.487,28.29
						c1.938-0.614,3.884-1.202,5.834-1.772C246.174,177.075,251.029,175.705,255.848,174.196z"/>
					<path style="opacity:0.59;fill:#B9D3E0;" d="M271.269,198.198c-5.489,0.294-10.987,0.46-16.479,0.716
						c11.225,9.763,23.294,17.471,37.583,19.187l26.467-21.663C302.976,196.343,287.1,197.35,271.269,198.198z"/>
					<path style="fill:#0084A3;" d="M292.372,218.495c-0.016,0-0.031-0.001-0.047-0.003c-22.244-2.672-39.258-19.885-55.711-36.532
						c-23.422-23.697-30.199-26.96-36.754-30.115c-23.695-11.407-43.457-3.145-53.128,2.795c-0.178,0.109-0.41,0.061-0.529-0.11
						c-0.12-0.171-0.085-0.405,0.078-0.535l123.165-97.643c0.091-0.063,6.93-4.675,17.626-7.311
						c9.872-2.433,25.156-3.64,41.903,4.421c14.216,6.844,23.989,20.461,33.439,33.63c12.449,17.347,24.208,33.731,45.283,36.263
						c0.157,0.019,0.287,0.13,0.331,0.281c0.044,0.152-0.007,0.315-0.129,0.415l-115.279,94.354
						C292.551,218.464,292.463,218.495,292.372,218.495z M175.841,145.355c7.391,0,15.611,1.567,24.362,5.78
						c13.455,6.477,25.411,18.574,36.973,30.271c16.317,16.509,33.186,33.579,55.077,36.284l114.443-93.67
						c-20.865-2.946-33.091-19.983-44.921-36.467c-9.393-13.089-19.106-26.623-33.141-33.379
						c-16.523-7.954-31.602-6.769-41.341-4.374c-10.568,2.599-17.312,7.142-17.379,7.188l-119.302,94.581
						C156.87,148.394,165.552,145.355,175.841,145.355z"/>
				</g>
			</g>
			<g style="opacity:0.5;">
				<path style="opacity:0.59;fill:#B9D3E0;" d="M210.912,156.352c-2.922-2.576-6.031-4.831-9.163-7.133
					c-2.771-2.037-5.864-4.38-7.304-7.61c-0.555-1.245-0.793-2.579-0.514-3.922c0.253-1.216,0.806-2.362,1.454-3.414
					c1.68-2.729,70.158-61.948,76.47-66.819c6.432-4.963,13.147-9.639,20.381-13.367c5.299-2.731,10.964-4.993,16.849-6.08
					c-22.764-2.686-39.392,8.653-39.392,8.653l-123.165,97.643c8.937-5.489,29.209-14.51,53.506-2.814
					c6.585,3.17,12.755,7.638,18.728,12.779C216.337,161.446,213.702,158.811,210.912,156.352z"/>
				<path style="fill:#B9D3E0;" d="M179.681,143.163c-1.759-0.902-3.655-2.304-3.075-4.564c0.437-1.702,1.895-3.134,3.124-4.305
					c2.914-2.777,6.346-4.881,9.413-7.463c5.554-4.677,11.105-9.351,16.618-14.077c11.091-9.506,22.424-18.708,33.822-27.842
					c5.664-4.539,11.329-9.076,16.951-13.667c4.716-3.853,9.336-7.828,14.182-11.52c5.294-4.032,11.019-7.839,17.177-10.471
					c-11.172,2.616-18.201,7.407-18.201,7.407l-123.165,97.643c7.367-4.524,22.436-11.447,41.113-7.19
					C184.972,145.829,182.319,144.516,179.681,143.163z"/>
				<path style="opacity:0.59;fill:#B9D3E0;" d="M378.38,107.91c0.504,1.735,0.849,3.507,0.897,5.344
					c0.091,3.447-0.997,6.718-2.909,9.562c-2.005,2.982-4.496,5.609-7.088,8.085c-2.657,2.537-5.454,4.921-8.146,7.421
					c-2.983,2.77-5.91,5.601-8.895,8.368c-6.33,5.868-12.732,11.659-19.253,17.314c-6.58,5.707-13.28,11.278-20.145,16.64
					c-3.319,2.593-6.676,5.137-10.075,7.623c-3.448,2.521-6.901,5.104-10.552,7.324c-6.422,3.905-13.708,6.435-21.29,6.219
					c-6.933-0.198-13.679-2.59-19.661-6.049c12.229,11.223,25.313,20.442,41.109,22.339l115.279-94.354
					C395.465,122.283,386.294,116.114,378.38,107.91z"/>
				<path style="opacity:0.59;fill:#B9D3E0;" d="M391.296,118.287c0.655,1.406,1.127,2.898,1.229,4.45
					c0.125,1.898-0.373,3.75-1.275,5.412c-1.06,1.952-2.578,3.634-4.138,5.196c-2.053,2.054-4.262,3.947-6.41,5.9
					c-10.324,9.384-21.041,18.324-31.901,27.079c-10.831,8.732-21.647,17.519-32.938,25.653
					c-5.365,3.865-10.793,7.657-16.358,11.228c-4.912,3.153-10.241,6.137-16.18,6.594c-5.986,0.461-12.053-1.479-17.354-4.107
					c-5.217-2.586-9.99-6.007-14.422-9.771c-0.094-0.054-0.19-0.105-0.284-0.16c12.229,11.223,25.313,20.442,41.109,22.339
					l115.279-94.354C401.509,123.009,396.132,121.074,391.296,118.287z"/>
			</g>
		</g>
		<g style="opacity:0.62;">
			<path style="fill:#BDBEB7;" d="M19.436,101.568c10.871,1.323,21.613,3.609,32.204,6.408c5.299,1.397,10.542,2.998,15.742,4.73
				c5.192,1.755,10.33,3.672,15.403,5.752c10.11,4.234,19.955,9.16,29.203,15.06l3.438,2.256c1.138,0.764,2.242,1.578,3.364,2.365
				l1.676,1.191l1.629,1.254l1.629,1.254c0.537,0.425,1.099,0.819,1.613,1.273l3.139,2.654l0.783,0.664l0.754,0.698l1.508,1.395
				c2.054,1.814,3.907,3.838,5.831,5.782c-3.892-3.85-7.946-7.527-12.257-10.891c-1.067-0.853-2.18-1.648-3.268-2.474l-1.64-1.229
				l-1.686-1.165c-1.129-0.769-2.239-1.566-3.383-2.312l-3.455-2.202c-4.663-2.842-9.386-5.597-14.281-8.028
				c-4.884-2.446-9.84-4.755-14.9-6.817c-5.046-2.095-10.16-4.029-15.33-5.801c-5.175-1.761-10.409-3.341-15.671-4.826
				c-5.265-1.474-10.574-2.792-15.917-3.965C30.226,103.408,24.85,102.374,19.436,101.568z"/>
			<path style="fill:#BDBEB7;" d="M29.376,107.924c9.843,0.805,19.546,2.899,29.065,5.513c4.764,1.31,9.464,2.845,14.117,4.507
				c4.656,1.657,9.238,3.516,13.763,5.5c1.125,0.511,2.263,0.994,3.375,1.531l3.346,1.594c1.114,0.533,2.208,1.109,3.313,1.661
				l1.653,0.837l1.634,0.873l3.264,1.756l3.218,1.838l1.607,0.922l1.584,0.962l3.157,1.94l3.105,2.022l1.552,1.011l1.524,1.053
				l3.046,2.107c1.004,0.718,1.993,1.457,2.988,2.188c2.002,1.446,3.918,3.004,5.859,4.527c1.938,1.527,3.792,3.159,5.683,4.742
				l-2.9-2.298c-0.967-0.765-1.915-1.553-2.912-2.279c-1.976-1.475-3.925-2.984-5.958-4.379c-1.007-0.71-2.002-1.436-3.015-2.137
				l-3.07-2.058l-1.535-1.028l-1.563-0.985l-3.125-1.971c-8.414-5.12-17.119-9.773-26.149-13.71
				c-8.987-4.03-18.275-7.374-27.727-10.147c-4.726-1.387-9.505-2.601-14.322-3.639C39.137,109.343,34.281,108.456,29.376,107.924z"
				/>
			<path style="fill:#BDBEB7;" d="M38.008,113.339c4.373,0.817,8.702,1.862,13.018,2.946c4.307,1.122,8.588,2.343,12.843,3.654
				c4.259,1.299,8.472,2.745,12.654,4.276c4.179,1.537,8.33,3.157,12.427,4.906c4.084,1.779,8.126,3.657,12.1,5.672
				c0.993,0.505,1.974,1.033,2.961,1.548c0.492,0.261,0.988,0.514,1.476,0.782l1.459,0.814c0.968,0.551,1.956,1.067,2.908,1.647
				l2.864,1.722c3.779,2.362,7.481,4.848,11.025,7.55c3.509,2.744,6.893,5.649,10.029,8.807c-3.26-3.029-6.684-5.866-10.261-8.498
				c-3.579-2.63-7.305-5.05-11.107-7.34c-3.823-2.256-7.717-4.389-11.679-6.392c-3.97-1.987-8.009-3.834-12.087-5.589
				c-8.154-3.519-16.5-6.59-24.952-9.33c-4.224-1.378-8.48-2.661-12.76-3.858C46.648,115.447,42.344,114.33,38.008,113.339z"/>
			<path style="fill:#BDBEB7;" d="M60.241,123.934c3.292,0.825,6.546,1.794,9.795,2.777c3.241,1.009,6.465,2.076,9.671,3.194
				c6.409,2.246,12.729,4.751,18.944,7.501c3.101,1.389,6.162,2.868,9.186,4.42c3.025,1.549,6.012,3.179,8.908,4.962
				c5.806,3.521,11.372,7.54,16.111,12.411c-2.475-2.323-5.122-4.446-7.885-6.4c-1.366-0.999-2.786-1.921-4.197-2.855
				c-1.438-0.893-2.868-1.798-4.339-2.635c-5.843-3.416-11.913-6.442-18.105-9.184c-6.168-2.8-12.475-5.287-18.827-7.651
				c-3.175-1.184-6.372-2.313-9.585-3.396C66.712,125.971,63.485,124.93,60.241,123.934z"/>
			<path style="fill:#BDBEB7;" d="M155.232,161.487c2.977,0.068,5.942,0.419,8.887,0.857l2.206,0.353
				c0.736,0.118,1.464,0.276,2.196,0.413l2.194,0.429l2.179,0.499l2.177,0.509l2.158,0.583l2.159,0.583
				c0.72,0.193,1.426,0.433,2.14,0.647l2.136,0.661c0.712,0.221,1.427,0.433,2.126,0.691l4.22,1.482
				c0.708,0.234,1.393,0.529,2.089,0.798l2.08,0.822l2.078,0.828c0.693,0.275,1.365,0.6,2.048,0.898l4.084,1.826
				c0.687,0.291,1.342,0.649,2.013,0.973l2.003,0.995l2.003,0.996l1.001,0.498c0.332,0.168,0.655,0.356,0.983,0.533l3.919,2.156
				l1.96,1.078c0.644,0.375,1.276,0.77,1.915,1.154l3.824,2.322c5.055,3.157,10.012,6.45,14.989,9.72
				c4.949,3.31,9.909,6.606,14.782,10.029c9.767,6.81,19.444,13.767,28.705,21.253c-4.72-3.627-9.534-7.127-14.388-10.569
				c-4.844-3.456-9.737-6.842-14.66-10.185c-9.847-6.68-19.763-13.271-29.845-19.582c-10.054-6.326-20.7-11.72-31.792-15.98
				c-5.552-2.117-11.228-3.907-16.993-5.349C167.04,162.98,161.175,161.848,155.232,161.487z"/>
			<path style="fill:#BDBEB7;" d="M157.483,167.043c2.813,0.252,5.612,0.649,8.398,1.12c1.394,0.23,2.78,0.506,4.171,0.756
				l4.15,0.868c5.515,1.247,10.96,2.793,16.331,4.567c1.338,0.458,2.682,0.899,4.015,1.372l3.962,1.52
				c1.329,0.486,2.622,1.063,3.922,1.619l1.95,0.838c0.647,0.285,1.307,0.542,1.939,0.861l3.827,1.838
				c0.634,0.314,1.285,0.595,1.904,0.937l1.87,1.006l3.738,2.016l3.635,2.197c2.442,1.441,4.769,3.037,7.144,4.568l7.059,4.688
				c4.684,3.157,9.355,6.335,13.964,9.602c4.609,3.266,9.192,6.568,13.735,9.924c4.525,3.381,9.04,6.775,13.45,10.303
				c-4.519-3.386-9.078-6.717-13.678-9.991c-4.586-3.292-9.206-6.536-13.854-9.739c-4.66-3.186-9.314-6.379-14.015-9.503
				l-7.072-4.654c-2.377-1.519-4.718-3.106-7.145-4.528l-3.605-2.2l-3.709-2.02l-1.855-1.009c-0.615-0.344-1.261-0.625-1.891-0.941
				l-3.8-1.846c-5.132-2.318-10.341-4.484-15.683-6.289c-5.328-1.837-10.74-3.442-16.224-4.764
				C168.633,168.828,163.086,167.748,157.483,167.043z"/>
			<path style="fill:#BDBEB7;" d="M158.303,170.622c2.61,0.31,5.205,0.755,7.783,1.273c1.291,0.25,2.572,0.548,3.86,0.82
				l3.838,0.922c5.097,1.312,10.123,2.891,15.086,4.65c9.891,3.603,19.498,8.057,28.498,13.549c2.226,1.408,4.485,2.774,6.652,4.26
				l3.28,2.191l3.262,2.218c4.346,2.961,8.665,5.964,12.918,9.058c8.505,6.184,16.909,12.531,24.83,19.451
				c-4.053-3.348-8.216-6.556-12.431-9.694c-4.205-3.151-8.452-6.245-12.752-9.264c-4.304-3.012-8.605-6.03-12.968-8.957
				l-3.268-2.201l-3.287-2.173c-2.175-1.479-4.424-2.821-6.644-4.215c-8.921-5.521-18.487-9.943-28.297-13.655
				c-4.92-1.822-9.912-3.46-14.977-4.846C168.625,172.611,163.496,171.438,158.303,170.622z"/>
			<path style="fill:#BDBEB7;" d="M158.303,172.73c0.465,0.001,0.929,0.037,1.394,0.061l1.391,0.125
				c0.923,0.115,1.847,0.234,2.767,0.381l2.75,0.492l2.73,0.597c0.457,0.094,0.909,0.205,1.357,0.331l1.35,0.361
				c0.897,0.249,1.806,0.462,2.694,0.742l2.669,0.827c0.89,0.275,1.783,0.544,2.656,0.867l2.636,0.93
				c0.877,0.315,1.76,0.615,2.618,0.978l5.182,2.094c3.396,1.53,6.822,3.001,10.138,4.7l2.499,1.25l1.247,0.628l1.226,0.669
				l4.903,2.677c1.649,0.867,3.23,1.852,4.837,2.791c1.604,0.944,3.202,1.9,4.796,2.861c3.133,2.011,6.259,4.031,9.372,6.068
				c3.04,2.147,6.094,4.271,9.118,6.436c-3.126-2.018-6.221-4.077-9.33-6.113c-3.152-1.969-6.31-3.929-9.475-5.873
				c-1.612-0.923-3.221-1.85-4.823-2.79c-1.609-0.927-3.193-1.899-4.842-2.753l-4.906-2.637l-1.226-0.659l-1.247-0.618l-2.497-1.231
				c-3.295-1.715-6.697-3.201-10.071-4.747l-5.148-2.118c-0.852-0.369-1.731-0.666-2.599-0.995l-2.606-0.977
				c-0.864-0.34-1.747-0.624-2.628-0.915l-2.642-0.876c-0.88-0.296-1.779-0.525-2.668-0.79c-0.894-0.247-1.777-0.538-2.682-0.745
				l-2.7-0.681l-2.724-0.577C161.993,173.174,160.161,172.837,158.303,172.73z"/>
			<path style="fill:#BDBEB7;" d="M72.535,131.466c5.376,1.424,10.651,3.214,15.857,5.177c5.207,1.965,10.309,4.2,15.345,6.57
				c5.019,2.407,9.936,5.033,14.708,7.898c4.798,2.825,9.358,6.038,13.774,9.409c-1.159-0.769-2.313-1.543-3.46-2.324l-1.725-1.166
				l-1.771-1.096l-3.525-2.213l-3.6-2.088c-1.192-0.709-2.414-1.365-3.63-2.031c-1.221-0.658-2.422-1.351-3.658-1.98l-3.706-1.889
				c-1.232-0.637-2.499-1.203-3.745-1.81c-4.991-2.421-10.081-4.637-15.225-6.718l-3.871-1.533l-3.9-1.459
				C77.801,133.239,75.176,132.332,72.535,131.466z"/>
		</g>
	</g>
</g>
</svg>
