<svg xmlns="http://www.w3.org/2000/svg" xmlns:xlink="http://www.w3.org/1999/xlink" width="500" zoomAndPan="magnify" viewBox="0 0 375 374.999991" height="500" preserveAspectRatio="xMidYMid meet" version="1.0"><defs><g/></defs><g fill="#000000" fill-opacity="1"><g transform="translate(45.219967, 285.092823)"><g><path d="M 125.671875 -173.859375 C 122.335938 -174.160156 119.15625 -174.425781 116.125 -174.65625 C 113.101562 -174.882812 110.148438 -174.921875 107.265625 -174.765625 C 104.234375 -174.460938 101.238281 -174.082031 98.28125 -173.625 C 95.332031 -173.175781 92.269531 -172.722656 89.09375 -172.265625 L 89.546875 -165.671875 C 90.296875 -155.972656 90.484375 -146.3125 90.109375 -136.6875 C 89.734375 -127.070312 89.394531 -117.414062 89.09375 -107.71875 C 88.9375 -101.96875 88.929688 -96.25 89.078125 -90.5625 C 89.234375 -84.882812 89.238281 -79.164062 89.09375 -73.40625 C 88.9375 -68.40625 88.78125 -63.367188 88.625 -58.296875 C 88.476562 -53.222656 88.253906 -48.109375 87.953125 -42.953125 C 87.648438 -38.859375 87.269531 -34.726562 86.8125 -30.5625 C 86.363281 -26.394531 85.53125 -22.34375 84.3125 -18.40625 C 84.007812 -17.195312 83.628906 -16.0625 83.171875 -15 C 82.722656 -13.9375 82.347656 -12.800781 82.046875 -11.59375 C 81.441406 -8.707031 80.832031 -5.898438 80.21875 -3.171875 C 79.613281 -0.453125 78.929688 2.421875 78.171875 5.453125 C 77.566406 4.691406 76.8125 4.425781 75.90625 4.65625 C 75 4.882812 74.085938 5.035156 73.171875 5.109375 C 72.265625 5.191406 71.507812 4.625 70.90625 3.40625 C 70.445312 3.40625 70.144531 3.484375 70 3.640625 C 68.332031 4.390625 66.738281 4.347656 65.21875 3.515625 C 63.707031 2.679688 62.117188 2.191406 60.453125 2.046875 C 56.660156 1.585938 54.238281 -0.53125 53.1875 -4.3125 C 52.726562 -6.132812 52.082031 -7.914062 51.25 -9.65625 C 50.414062 -11.394531 49.546875 -13.097656 48.640625 -14.765625 C 46.972656 -18.097656 45.457031 -21.46875 44.09375 -24.875 C 42.726562 -28.289062 41.664062 -31.816406 40.90625 -35.453125 C 40.144531 -38.023438 39.648438 -40.523438 39.421875 -42.953125 C 39.203125 -45.378906 38.941406 -47.878906 38.640625 -50.453125 C 38.484375 -52.273438 38.367188 -54.128906 38.296875 -56.015625 C 38.222656 -57.910156 38.1875 -59.84375 38.1875 -61.8125 L 38.1875 -82.265625 C 38.03125 -84.535156 37.875 -86.804688 37.71875 -89.078125 C 37.570312 -91.359375 37.570312 -93.554688 37.71875 -95.671875 C 37.875 -99.617188 38.066406 -103.484375 38.296875 -107.265625 C 38.523438 -111.054688 38.789062 -114.921875 39.09375 -118.859375 C 39.238281 -120.367188 39.3125 -121.878906 39.3125 -123.390625 C 39.3125 -124.910156 39.3125 -126.429688 39.3125 -127.953125 C 39.46875 -129.617188 39.503906 -131.359375 39.421875 -133.171875 C 39.347656 -134.992188 39.3125 -136.8125 39.3125 -138.625 C 39.46875 -142.269531 39.8125 -145.867188 40.34375 -149.421875 C 40.875 -152.984375 41.894531 -156.507812 43.40625 -160 C 44.007812 -161.363281 44.460938 -162.835938 44.765625 -164.421875 C 45.066406 -166.015625 45.445312 -167.722656 45.90625 -169.546875 L 32.5 -170.21875 C 28.101562 -170.375 23.785156 -170.675781 19.546875 -171.125 C 15.304688 -171.582031 11.140625 -172.492188 7.046875 -173.859375 C 5.222656 -174.460938 4.195312 -175.03125 3.96875 -175.5625 C 3.75 -176.09375 4.09375 -177.191406 5 -178.859375 C 5.90625 -180.367188 6.960938 -181.578125 8.171875 -182.484375 C 9.390625 -183.398438 10.753906 -184.3125 12.265625 -185.21875 C 15.753906 -187.789062 19.46875 -189.492188 23.40625 -190.328125 C 27.34375 -191.160156 31.4375 -191.578125 35.6875 -191.578125 C 44.769531 -191.273438 54.007812 -191.273438 63.40625 -191.578125 C 65.675781 -191.734375 67.984375 -191.8125 70.328125 -191.8125 C 72.679688 -191.8125 74.992188 -192.265625 77.265625 -193.171875 C 77.867188 -193.472656 78.359375 -193.546875 78.734375 -193.390625 C 79.117188 -193.242188 79.539062 -193.097656 80 -192.953125 C 82.269531 -192.347656 84.617188 -192.046875 87.046875 -192.046875 C 91.742188 -192.046875 96.363281 -191.851562 100.90625 -191.46875 C 105.445312 -191.09375 109.992188 -190.375 114.546875 -189.3125 C 116.515625 -189.007812 118.21875 -188.363281 119.65625 -187.375 C 121.09375 -186.394531 122.644531 -185.375 124.3125 -184.3125 C 124.914062 -183.707031 125.21875 -183.023438 125.21875 -182.265625 C 125.375 -181.054688 125.488281 -179.769531 125.5625 -178.40625 C 125.632812 -177.039062 125.671875 -175.523438 125.671875 -173.859375 Z M 71.8125 -137.046875 L 71.8125 -112.953125 L 72.5 -112.953125 C 72.5 -117.046875 72.535156 -121.097656 72.609375 -125.109375 C 72.679688 -129.117188 72.796875 -133.097656 72.953125 -137.046875 Z M 71.140625 -55.21875 L 70.671875 -30.6875 L 71.359375 -30.6875 C 71.359375 -34.769531 71.394531 -38.859375 71.46875 -42.953125 C 71.550781 -47.046875 71.59375 -51.132812 71.59375 -55.21875 Z M 71.140625 -55.21875 "/></g></g></g><g fill="#5271ff" fill-opacity="1"><g transform="translate(148.212805, 288.87482)"><g><path d="M 40.28125 2.59375 C 39.945312 2.425781 39.582031 2.382812 39.1875 2.46875 C 38.800781 2.550781 38.441406 2.535156 38.109375 2.421875 C 37.773438 2.304688 37.523438 1.945312 37.359375 1.34375 C 37.242188 1.5625 37.171875 1.722656 37.140625 1.828125 C 37.117188 1.941406 37.050781 2.113281 36.9375 2.34375 C 36.539062 2.226562 36.175781 2.128906 35.84375 2.046875 C 35.507812 1.960938 35.175781 1.863281 34.84375 1.75 C 34.507812 1.582031 34.234375 1.53125 34.015625 1.59375 C 32.898438 1.644531 32.117188 1.113281 31.671875 0 C 31.390625 -0.945312 31.125 -1.921875 30.875 -2.921875 C 30.625 -3.921875 30.359375 -4.894531 30.078125 -5.84375 L 28.75 -10.953125 L 27.578125 -16.796875 C 27.410156 -16.796875 27.242188 -16.804688 27.078125 -16.828125 C 26.910156 -16.859375 26.742188 -16.875 26.578125 -16.875 L 19.140625 -17.21875 C 18.691406 -17.21875 18.382812 -17.160156 18.21875 -17.046875 C 18.050781 -16.929688 17.910156 -16.65625 17.796875 -16.21875 L 17.125 -13.953125 C 17.070312 -13.785156 17.003906 -13.617188 16.921875 -13.453125 C 16.835938 -13.285156 16.796875 -13.117188 16.796875 -12.953125 C 16.796875 -12.171875 16.640625 -11.429688 16.328125 -10.734375 C 16.023438 -10.035156 15.734375 -9.328125 15.453125 -8.609375 L 15.125 -7.609375 C 14.84375 -6.546875 14.546875 -5.539062 14.234375 -4.59375 C 13.929688 -3.644531 13.503906 -2.695312 12.953125 -1.75 C 12.503906 -1.082031 11.972656 -0.804688 11.359375 -0.921875 C 10.921875 -0.972656 10.503906 -0.96875 10.109375 -0.90625 C 9.722656 -0.851562 9.390625 -1.050781 9.109375 -1.5 C 8.109375 -1.050781 7.160156 -1.164062 6.265625 -1.84375 C 5.929688 -1.945312 5.765625 -2 5.765625 -2 C 4.203125 -1.832031 3.253906 -2.445312 2.921875 -3.84375 L 2.25 -8.9375 C 2.144531 -9.769531 2.050781 -10.601562 1.96875 -11.4375 C 1.882812 -12.28125 1.785156 -13.117188 1.671875 -13.953125 L 1.671875 -16.296875 C 1.671875 -16.960938 1.644531 -17.378906 1.59375 -17.546875 C 1.3125 -18.878906 1.15625 -20.203125 1.125 -21.515625 C 1.101562 -22.828125 1.144531 -24.148438 1.25 -25.484375 C 1.3125 -26.316406 1.4375 -27.132812 1.625 -27.9375 C 1.820312 -28.75 2.003906 -29.578125 2.171875 -30.421875 C 2.335938 -31.367188 2.503906 -32.300781 2.671875 -33.21875 C 2.835938 -34.132812 3.035156 -35.066406 3.265625 -36.015625 L 5.84375 -46.453125 L 8.109375 -54.90625 L 10.453125 -62.59375 C 10.671875 -63.3125 10.863281 -64.03125 11.03125 -64.75 C 11.195312 -65.476562 11.421875 -66.175781 11.703125 -66.84375 C 12.148438 -67.90625 12.566406 -68.976562 12.953125 -70.0625 C 13.335938 -71.15625 13.867188 -72.175781 14.546875 -73.125 L 14.796875 -73.453125 C 15.347656 -74.453125 15.734375 -75.09375 15.953125 -75.375 C 16.179688 -75.65625 16.710938 -75.988281 17.546875 -76.375 C 17.660156 -76.488281 17.757812 -76.546875 17.84375 -76.546875 C 17.925781 -76.546875 18.023438 -76.597656 18.140625 -76.703125 C 18.191406 -76.765625 18.242188 -76.820312 18.296875 -76.875 C 18.359375 -76.9375 18.414062 -77.019531 18.46875 -77.125 L 18.96875 -76.546875 L 19.21875 -76.703125 L 19.546875 -77.46875 C 19.773438 -77.6875 19.957031 -77.890625 20.09375 -78.078125 C 20.238281 -78.273438 20.53125 -78.429688 20.96875 -78.546875 C 21.363281 -78.660156 21.726562 -78.882812 22.0625 -79.21875 C 22.394531 -79.550781 22.753906 -79.859375 23.140625 -80.140625 C 24.148438 -79.304688 24.820312 -78.273438 25.15625 -77.046875 L 25.65625 -77.125 C 26.375 -77.570312 26.832031 -77.78125 27.03125 -77.75 C 27.226562 -77.726562 27.632812 -77.328125 28.25 -76.546875 C 28.46875 -76.265625 28.660156 -75.925781 28.828125 -75.53125 C 28.992188 -75.144531 29.132812 -74.785156 29.25 -74.453125 C 29.96875 -72.390625 30.59375 -70.300781 31.125 -68.1875 C 31.65625 -66.070312 32.0625 -63.898438 32.34375 -61.671875 C 32.675781 -58.992188 32.96875 -56.300781 33.21875 -53.59375 C 33.46875 -50.894531 33.734375 -48.210938 34.015625 -45.546875 C 34.285156 -43.421875 34.585938 -41.34375 34.921875 -39.3125 C 35.265625 -37.28125 35.570312 -35.207031 35.84375 -33.09375 C 36.125 -31.082031 36.414062 -29.0625 36.71875 -27.03125 C 37.03125 -25 37.351562 -22.976562 37.6875 -20.96875 L 39.4375 -10.1875 C 39.664062 -8.519531 39.847656 -6.835938 39.984375 -5.140625 C 40.117188 -3.441406 40.242188 -1.753906 40.359375 -0.078125 C 40.410156 0.359375 40.410156 0.785156 40.359375 1.203125 C 40.304688 1.628906 40.28125 2.09375 40.28125 2.59375 Z M 20.0625 -24.234375 L 26.484375 -24.234375 C 26.097656 -27.015625 25.707031 -29.753906 25.3125 -32.453125 C 24.925781 -35.160156 24.507812 -37.878906 24.0625 -40.609375 C 23.957031 -40.328125 23.847656 -40.101562 23.734375 -39.9375 C 23.617188 -39.769531 23.535156 -39.578125 23.484375 -39.359375 C 23.367188 -38.359375 23.210938 -37.382812 23.015625 -36.4375 C 22.828125 -35.488281 22.507812 -34.539062 22.0625 -33.59375 L 21.984375 -33.09375 C 21.867188 -32.59375 21.769531 -32.101562 21.6875 -31.625 C 21.601562 -31.15625 21.503906 -30.695312 21.390625 -30.25 C 21.273438 -29.75 21.109375 -29.257812 20.890625 -28.78125 C 20.671875 -28.3125 20.503906 -27.851562 20.390625 -27.40625 C 20.273438 -26.90625 20.203125 -26.390625 20.171875 -25.859375 C 20.148438 -25.328125 20.113281 -24.785156 20.0625 -24.234375 Z M 20.0625 -24.234375 "/></g></g></g><g fill="#5271ff" fill-opacity="1"><g transform="translate(191.325955, 288.87482)"><g><path d="M 30.25 -58.078125 L 27.234375 -58.828125 C 26.628906 -59.046875 26.046875 -59.140625 25.484375 -59.109375 C 24.929688 -59.085938 24.375 -58.851562 23.8125 -58.40625 C 23.53125 -58.1875 23.195312 -58.019531 22.8125 -57.90625 C 22.425781 -57.789062 22.0625 -57.648438 21.71875 -57.484375 C 21.445312 -57.378906 21.1875 -57.269531 20.9375 -57.15625 C 20.6875 -57.039062 20.53125 -56.789062 20.46875 -56.40625 C 20.414062 -56.238281 20.316406 -56.082031 20.171875 -55.9375 C 20.035156 -55.800781 19.910156 -55.675781 19.796875 -55.5625 L 18.96875 -54.65625 C 19.1875 -54.207031 19.421875 -53.773438 19.671875 -53.359375 C 19.929688 -52.941406 20.253906 -52.535156 20.640625 -52.140625 C 21.472656 -51.359375 22.347656 -50.617188 23.265625 -49.921875 C 24.191406 -49.234375 25.070312 -48.5 25.90625 -47.71875 C 26.070312 -47.601562 26.265625 -47.503906 26.484375 -47.421875 C 26.710938 -47.335938 26.910156 -47.238281 27.078125 -47.125 C 27.242188 -46.957031 27.328125 -46.90625 27.328125 -46.96875 C 27.878906 -46.457031 28.460938 -46.019531 29.078125 -45.65625 C 29.691406 -45.300781 30.273438 -44.875 30.828125 -44.375 C 31.335938 -43.925781 31.828125 -43.476562 32.296875 -43.03125 C 32.765625 -42.582031 33.222656 -42.109375 33.671875 -41.609375 C 34.453125 -40.773438 35.132812 -39.882812 35.71875 -38.9375 C 36.300781 -37.988281 36.734375 -36.929688 37.015625 -35.765625 C 37.796875 -32.085938 38.101562 -28.410156 37.9375 -24.734375 C 37.769531 -21.054688 37.296875 -17.378906 36.515625 -13.703125 C 36.460938 -13.316406 36.363281 -12.941406 36.21875 -12.578125 C 36.082031 -12.210938 35.929688 -11.863281 35.765625 -11.53125 C 35.265625 -10.46875 34.75 -9.421875 34.21875 -8.390625 C 33.6875 -7.367188 33.085938 -6.382812 32.421875 -5.4375 L 32.25 -5.1875 C 31.46875 -4.570312 30.703125 -3.957031 29.953125 -3.34375 C 29.203125 -2.726562 28.328125 -2.28125 27.328125 -2 C 27.210938 -2 27.128906 -2.03125 27.078125 -2.09375 C 27.015625 -2.09375 26.957031 -2.117188 26.90625 -2.171875 L 24.8125 -1.421875 C 24.257812 -1.203125 23.691406 -1.101562 23.109375 -1.125 C 22.523438 -1.15625 21.976562 -1.003906 21.46875 -0.671875 L 21.3125 -0.671875 C 20.03125 -0.722656 18.757812 -0.734375 17.5 -0.703125 C 16.25 -0.679688 14.984375 -0.894531 13.703125 -1.34375 C 12.816406 -1.613281 11.941406 -1.898438 11.078125 -2.203125 C 10.210938 -2.515625 9.332031 -2.835938 8.4375 -3.171875 C 7.320312 -3.617188 6.347656 -4.175781 5.515625 -4.84375 C 4.679688 -5.507812 4.015625 -6.398438 3.515625 -7.515625 C 3.066406 -8.460938 2.769531 -9.421875 2.625 -10.390625 C 2.488281 -11.367188 2.445312 -12.363281 2.5 -13.375 C 2.5 -14.425781 2.484375 -15.46875 2.453125 -16.5 C 2.429688 -17.53125 2.445312 -18.546875 2.5 -19.546875 C 2.5625 -20.773438 2.785156 -21.929688 3.171875 -23.015625 C 3.566406 -24.109375 4.066406 -25.15625 4.671875 -26.15625 C 5.953125 -28.269531 7.597656 -29.523438 9.609375 -29.921875 C 9.828125 -29.410156 9.921875 -28.695312 9.890625 -27.78125 C 9.867188 -26.863281 9.691406 -26.097656 9.359375 -25.484375 C 9.023438 -24.816406 8.816406 -24.148438 8.734375 -23.484375 C 8.648438 -22.816406 8.632812 -22.09375 8.6875 -21.3125 C 8.914062 -18.6875 9.722656 -16.347656 11.109375 -14.296875 C 11.773438 -13.347656 12.523438 -12.507812 13.359375 -11.78125 C 14.203125 -11.0625 15.207031 -10.644531 16.375 -10.53125 C 17.039062 -10.414062 17.722656 -10.382812 18.421875 -10.4375 C 19.117188 -10.5 19.800781 -10.585938 20.46875 -10.703125 C 21.03125 -10.753906 21.476562 -11.195312 21.8125 -12.03125 C 22.195312 -13.03125 22.488281 -14.046875 22.6875 -15.078125 C 22.882812 -16.109375 22.84375 -17.179688 22.5625 -18.296875 L 22.5625 -18.96875 C 22.613281 -20.132812 22.484375 -21.25 22.171875 -22.3125 C 21.867188 -23.375 21.523438 -24.429688 21.140625 -25.484375 C 21.023438 -25.816406 20.925781 -26.148438 20.84375 -26.484375 C 20.757812 -26.816406 20.664062 -27.148438 20.5625 -27.484375 C 20.28125 -28.941406 19.75 -30.253906 18.96875 -31.421875 C 18.6875 -31.753906 18.390625 -32.054688 18.078125 -32.328125 C 17.773438 -32.609375 17.457031 -32.890625 17.125 -33.171875 C 16.175781 -33.835938 15.226562 -34.503906 14.28125 -35.171875 C 13.34375 -35.847656 12.367188 -36.492188 11.359375 -37.109375 C 10.523438 -37.609375 9.675781 -38.109375 8.8125 -38.609375 C 7.945312 -39.109375 7.179688 -39.71875 6.515625 -40.4375 C 5.898438 -41.050781 5.3125 -41.691406 4.75 -42.359375 C 4.195312 -43.035156 3.753906 -43.757812 3.421875 -44.53125 C 3.035156 -45.425781 2.742188 -46.347656 2.546875 -47.296875 C 2.347656 -48.242188 2.304688 -49.273438 2.421875 -50.390625 C 2.535156 -51.441406 2.71875 -52.46875 2.96875 -53.46875 C 3.21875 -54.476562 3.507812 -55.484375 3.84375 -56.484375 C 4.125 -57.316406 4.5 -58.082031 4.96875 -58.78125 C 5.445312 -59.476562 5.90625 -60.191406 6.34375 -60.921875 C 6.789062 -61.703125 7.289062 -62.425781 7.84375 -63.09375 C 8.40625 -63.757812 8.96875 -64.453125 9.53125 -65.171875 C 10.3125 -66.234375 11.210938 -67.070312 12.234375 -67.6875 C 13.265625 -68.300781 14.367188 -68.828125 15.546875 -69.265625 L 18.640625 -70.53125 C 19.410156 -70.863281 20.203125 -71.207031 21.015625 -71.5625 C 21.828125 -71.925781 22.617188 -72.25 23.390625 -72.53125 C 24.234375 -72.8125 25.070312 -72.960938 25.90625 -72.984375 C 26.738281 -73.015625 27.546875 -72.753906 28.328125 -72.203125 C 28.660156 -71.921875 28.96875 -71.613281 29.25 -71.28125 L 30.921875 -67.859375 C 31.085938 -67.460938 31.171875 -67.039062 31.171875 -66.59375 C 31.453125 -64.03125 31.285156 -61.441406 30.671875 -58.828125 C 30.609375 -58.609375 30.46875 -58.359375 30.25 -58.078125 Z M 30.25 -58.078125 "/></g></g></g><g fill="#5271ff" fill-opacity="1"><g transform="translate(231.096994, 288.87482)"><g><path d="M 20.5625 -47.546875 C 21 -48.492188 21.46875 -49.425781 21.96875 -50.34375 C 22.476562 -51.257812 22.953125 -52.191406 23.390625 -53.140625 L 31.75 -69.109375 C 32.195312 -70.109375 32.867188 -70.71875 33.765625 -70.9375 C 34.367188 -71.050781 34.835938 -71.332031 35.171875 -71.78125 C 35.515625 -72.226562 35.9375 -72.5625 36.4375 -72.78125 C 36.601562 -72.894531 36.769531 -72.992188 36.9375 -73.078125 C 37.101562 -73.160156 37.269531 -73.257812 37.4375 -73.375 C 37.820312 -73.03125 38.039062 -72.664062 38.09375 -72.28125 C 38.15625 -71.894531 38.210938 -71.503906 38.265625 -71.109375 C 38.597656 -68.710938 38.679688 -66.382812 38.515625 -64.125 C 38.347656 -61.875 37.765625 -59.632812 36.765625 -57.40625 C 36.265625 -56.289062 35.804688 -55.117188 35.390625 -53.890625 C 34.972656 -52.671875 34.429688 -51.53125 33.765625 -50.46875 C 33.085938 -49.414062 32.5 -48.332031 32 -47.21875 C 31.5 -46.101562 30.804688 -45.070312 29.921875 -44.125 L 32.09375 -40.03125 L 34.671875 -34.515625 C 34.953125 -33.898438 35.273438 -33.300781 35.640625 -32.71875 C 36.003906 -32.132812 36.320312 -31.535156 36.59375 -30.921875 C 37.65625 -28.910156 38.644531 -26.890625 39.5625 -24.859375 C 40.488281 -22.828125 41.253906 -20.722656 41.859375 -18.546875 C 42.140625 -17.597656 42.445312 -16.664062 42.78125 -15.75 C 43.113281 -14.832031 43.503906 -13.925781 43.953125 -13.03125 C 44.785156 -11.363281 45.285156 -9.648438 45.453125 -7.890625 C 45.617188 -6.140625 45.648438 -4.375 45.546875 -2.59375 C 45.546875 -2.476562 45.53125 -2.390625 45.5 -2.328125 C 45.46875 -2.273438 45.425781 -2.195312 45.375 -2.09375 C 44.59375 -1.976562 43.851562 -1.988281 43.15625 -2.125 C 42.457031 -2.269531 41.75 -2.425781 41.03125 -2.59375 C 40.53125 -2.695312 40.039062 -2.804688 39.5625 -2.921875 C 39.09375 -3.035156 38.660156 -3.316406 38.265625 -3.765625 C 37.992188 -4.203125 37.6875 -4.613281 37.34375 -5 C 37.007812 -5.394531 36.707031 -5.816406 36.4375 -6.265625 C 35.875 -7.046875 35.34375 -7.8125 34.84375 -8.5625 C 34.34375 -9.3125 33.816406 -10.050781 33.265625 -10.78125 C 32.316406 -12.0625 31.410156 -13.328125 30.546875 -14.578125 C 29.679688 -15.835938 28.96875 -17.21875 28.40625 -18.71875 C 28.1875 -19.332031 27.910156 -19.929688 27.578125 -20.515625 C 27.242188 -21.097656 26.9375 -21.695312 26.65625 -22.3125 L 26.328125 -22.984375 C 26.265625 -23.703125 26.050781 -24.328125 25.6875 -24.859375 C 25.332031 -25.390625 25.015625 -25.960938 24.734375 -26.578125 C 24.285156 -27.523438 23.894531 -28.484375 23.5625 -29.453125 C 23.226562 -30.429688 22.867188 -31.421875 22.484375 -32.421875 C 22.085938 -32.203125 21.804688 -31.878906 21.640625 -31.453125 C 21.472656 -31.035156 21.25 -30.660156 20.96875 -30.328125 C 20.863281 -30.222656 20.8125 -30.113281 20.8125 -30 C 20.8125 -29.882812 20.753906 -29.773438 20.640625 -29.671875 C 20.023438 -29.054688 19.675781 -28.34375 19.59375 -27.53125 C 19.507812 -26.726562 19.410156 -25.9375 19.296875 -25.15625 C 19.191406 -24.425781 19.097656 -23.695312 19.015625 -22.96875 C 18.929688 -22.25 18.832031 -21.5 18.71875 -20.71875 L 17.96875 -15.875 C 17.851562 -14.757812 17.613281 -13.6875 17.25 -12.65625 C 16.894531 -11.625 16.519531 -10.609375 16.125 -9.609375 C 15.625 -8.328125 15.175781 -7.070312 14.78125 -5.84375 C 14.394531 -4.625 14.203125 -3.316406 14.203125 -1.921875 C 14.203125 -1.191406 14.128906 -0.492188 13.984375 0.171875 C 13.847656 0.835938 13.726562 1.53125 13.625 2.25 C 13.007812 2.414062 12.421875 2.441406 11.859375 2.328125 C 11.304688 2.222656 10.75 2.144531 10.1875 2.09375 C 8.570312 1.925781 7.65625 0.976562 7.4375 -0.75 C 7.382812 -1.25 7.285156 -1.75 7.140625 -2.25 C 7.003906 -2.757812 6.878906 -3.265625 6.765625 -3.765625 C 6.597656 -4.929688 6.316406 -6.054688 5.921875 -7.140625 C 5.535156 -8.234375 5.117188 -9.335938 4.671875 -10.453125 C 4.234375 -11.671875 3.789062 -12.890625 3.34375 -14.109375 C 2.894531 -15.335938 2.53125 -16.59375 2.25 -17.875 C 1.976562 -18.882812 1.828125 -19.914062 1.796875 -20.96875 C 1.765625 -22.03125 1.640625 -23.09375 1.421875 -24.15625 C 1.140625 -25.601562 1.015625 -27.0625 1.046875 -28.53125 C 1.078125 -30.007812 1.117188 -31.472656 1.171875 -32.921875 C 1.171875 -34.035156 1.222656 -35.148438 1.328125 -36.265625 C 1.441406 -37.378906 1.554688 -38.492188 1.671875 -39.609375 C 1.785156 -40.054688 1.785156 -40.53125 1.671875 -41.03125 C 1.554688 -42.425781 1.582031 -43.804688 1.75 -45.171875 C 1.914062 -46.535156 2.082031 -47.910156 2.25 -49.296875 C 2.363281 -50.410156 2.421875 -51.539062 2.421875 -52.6875 C 2.421875 -53.832031 2.476562 -54.960938 2.59375 -56.078125 C 2.695312 -57.179688 2.832031 -58.25 3 -59.28125 C 3.175781 -60.3125 3.347656 -61.382812 3.515625 -62.5 C 3.566406 -62.832031 3.632812 -63.164062 3.71875 -63.5 C 3.800781 -63.84375 3.84375 -64.179688 3.84375 -64.515625 C 3.84375 -65.398438 4.148438 -66.234375 4.765625 -67.015625 C 5.046875 -67.460938 5.28125 -67.90625 5.46875 -68.34375 C 5.664062 -68.789062 5.90625 -69.238281 6.1875 -69.6875 C 6.40625 -70.019531 6.625 -70.351562 6.84375 -70.6875 C 7.070312 -71.03125 7.328125 -71.394531 7.609375 -71.78125 C 7.710938 -71.664062 7.820312 -71.59375 7.9375 -71.5625 C 8.050781 -71.539062 8.160156 -71.472656 8.265625 -71.359375 C 8.546875 -71.640625 8.851562 -71.890625 9.1875 -72.109375 C 9.519531 -72.335938 9.828125 -72.585938 10.109375 -72.859375 C 10.273438 -72.804688 10.441406 -72.695312 10.609375 -72.53125 C 10.773438 -72.8125 10.925781 -73.046875 11.0625 -73.234375 C 11.207031 -73.429688 11.363281 -73.644531 11.53125 -73.875 C 11.644531 -74.039062 11.785156 -74.191406 11.953125 -74.328125 C 12.117188 -74.460938 12.257812 -74.5625 12.375 -74.625 L 15.953125 -76.625 C 16.796875 -75.457031 17.351562 -74.148438 17.625 -72.703125 C 17.90625 -71.359375 18.171875 -70.019531 18.421875 -68.6875 C 18.671875 -67.351562 18.878906 -65.988281 19.046875 -64.59375 C 19.273438 -62.3125 19.472656 -60.039062 19.640625 -57.78125 C 19.804688 -55.53125 19.972656 -53.257812 20.140625 -50.96875 C 20.191406 -50.414062 20.203125 -49.859375 20.171875 -49.296875 C 20.148438 -48.742188 20.140625 -48.1875 20.140625 -47.625 C 20.253906 -47.625 20.320312 -47.609375 20.34375 -47.578125 C 20.375 -47.554688 20.445312 -47.546875 20.5625 -47.546875 Z M 13.53125 -57.078125 L 12.78125 -31.421875 C 12.945312 -31.804688 13.097656 -32.804688 13.234375 -34.421875 C 13.378906 -36.035156 13.492188 -37.957031 13.578125 -40.1875 C 13.660156 -42.414062 13.726562 -44.671875 13.78125 -46.953125 C 13.84375 -49.242188 13.84375 -51.304688 13.78125 -53.140625 C 13.726562 -54.984375 13.644531 -56.296875 13.53125 -57.078125 Z M 12.703125 -25.3125 L 12.453125 -25.3125 L 12.109375 -19.640625 L 12.28125 -19.640625 C 12.34375 -20.585938 12.398438 -21.535156 12.453125 -22.484375 C 12.503906 -23.429688 12.585938 -24.375 12.703125 -25.3125 Z M 12.703125 -25.3125 "/></g></g></g><g fill="#00bf63" fill-opacity="1"><g transform="translate(153.26477, 193.601414)"><g><path d="M 6.09375 -37.890625 C 6.238281 -37.703125 6.375 -37.53125 6.5 -37.375 C 6.625 -37.21875 6.753906 -37.054688 6.890625 -36.890625 C 6.953125 -36.941406 7.007812 -36.972656 7.0625 -36.984375 C 7.113281 -37.003906 7.171875 -37.046875 7.234375 -37.109375 C 7.535156 -37.273438 7.789062 -37.34375 8 -37.3125 C 8.207031 -37.28125 8.453125 -37.15625 8.734375 -36.9375 C 9.097656 -36.601562 9.390625 -36.234375 9.609375 -35.828125 C 9.828125 -35.421875 10.0625 -35.023438 10.3125 -34.640625 C 10.457031 -34.359375 10.59375 -34.070312 10.71875 -33.78125 C 10.84375 -33.488281 10.972656 -33.203125 11.109375 -32.921875 C 11.421875 -32.390625 11.671875 -31.875 11.859375 -31.375 C 12.222656 -30.59375 12.570312 -29.8125 12.90625 -29.03125 C 13.238281 -28.257812 13.5625 -27.484375 13.875 -26.703125 C 14.175781 -25.941406 14.472656 -25.175781 14.765625 -24.40625 C 15.054688 -23.644531 15.359375 -22.890625 15.671875 -22.140625 C 15.753906 -22.035156 15.847656 -21.851562 15.953125 -21.59375 L 16.34375 -22.4375 C 16.726562 -23.5 17.125 -24.539062 17.53125 -25.5625 C 17.9375 -26.59375 18.398438 -27.597656 18.921875 -28.578125 L 21.765625 -33.890625 C 21.910156 -34.191406 22.078125 -34.46875 22.265625 -34.71875 C 22.460938 -34.96875 22.660156 -35.234375 22.859375 -35.515625 C 23.492188 -36.398438 24.285156 -36.984375 25.234375 -37.265625 C 25.367188 -37.328125 25.4375 -37.359375 25.4375 -37.359375 C 25.519531 -37.609375 25.664062 -37.765625 25.875 -37.828125 C 26.09375 -37.898438 26.285156 -38.003906 26.453125 -38.140625 C 26.921875 -38.453125 27.28125 -38.546875 27.53125 -38.421875 C 27.78125 -38.296875 27.988281 -38.023438 28.15625 -37.609375 C 28.4375 -36.796875 28.640625 -35.992188 28.765625 -35.203125 C 28.890625 -34.410156 28.992188 -33.609375 29.078125 -32.796875 C 29.191406 -31.847656 29.296875 -30.90625 29.390625 -29.96875 C 29.492188 -29.039062 29.570312 -28.101562 29.625 -27.15625 C 29.707031 -25.757812 29.789062 -24.382812 29.875 -23.03125 C 29.957031 -21.6875 30.023438 -20.316406 30.078125 -18.921875 C 30.140625 -18.335938 30.179688 -17.753906 30.203125 -17.171875 C 30.234375 -16.585938 30.265625 -16.015625 30.296875 -15.453125 C 30.347656 -14.316406 30.382812 -13.195312 30.40625 -12.09375 C 30.4375 -10.988281 30.453125 -9.867188 30.453125 -8.734375 C 30.453125 -8.253906 30.425781 -7.773438 30.375 -7.296875 C 30.320312 -6.828125 30.265625 -6.359375 30.203125 -5.890625 C 30.179688 -5.671875 30.140625 -5.441406 30.078125 -5.203125 C 30.023438 -4.960938 29.972656 -4.734375 29.921875 -4.515625 C 29.753906 -3.984375 29.65625 -3.453125 29.625 -2.921875 C 29.59375 -2.390625 29.566406 -1.847656 29.546875 -1.296875 C 29.515625 -0.960938 29.488281 -0.628906 29.46875 -0.296875 C 29.457031 0.0351562 29.382812 0.382812 29.25 0.75 C 29.019531 0.695312 28.800781 0.703125 28.59375 0.765625 C 28.382812 0.835938 28.210938 0.75 28.078125 0.5 C 27.992188 0.53125 27.910156 0.566406 27.828125 0.609375 C 27.742188 0.648438 27.675781 0.65625 27.625 0.625 C 27.0625 0.539062 26.546875 0.414062 26.078125 0.25 C 25.765625 0.132812 25.53125 -0.046875 25.375 -0.296875 C 25.226562 -0.546875 25.082031 -0.796875 24.9375 -1.046875 C 24.550781 -1.660156 24.21875 -2.285156 23.9375 -2.921875 C 23.65625 -3.566406 23.378906 -4.222656 23.109375 -4.890625 C 22.941406 -5.273438 22.765625 -5.671875 22.578125 -6.078125 C 22.398438 -6.484375 22.242188 -6.894531 22.109375 -7.3125 C 21.929688 -7.84375 21.800781 -8.378906 21.71875 -8.921875 C 21.632812 -9.460938 21.566406 -10.015625 21.515625 -10.578125 C 21.484375 -10.847656 21.445312 -11.109375 21.40625 -11.359375 C 21.363281 -11.609375 21.34375 -11.859375 21.34375 -12.109375 C 21.320312 -12.390625 21.3125 -12.65625 21.3125 -12.90625 C 21.3125 -13.15625 21.3125 -13.421875 21.3125 -13.703125 C 21.3125 -14.003906 21.300781 -14.296875 21.28125 -14.578125 C 21.269531 -14.859375 21.265625 -15.140625 21.265625 -15.421875 C 21.234375 -15.953125 21.21875 -16.472656 21.21875 -16.984375 C 21.21875 -17.492188 21.21875 -18.015625 21.21875 -18.546875 C 21.195312 -18.773438 21.175781 -19.003906 21.15625 -19.234375 C 21.144531 -19.472656 21.140625 -19.71875 21.140625 -19.96875 C 21.140625 -20.03125 21.128906 -20.109375 21.109375 -20.203125 C 21.097656 -20.296875 21.109375 -20.375 21.140625 -20.4375 C 21.253906 -20.738281 21.28125 -21.035156 21.21875 -21.328125 C 21.164062 -21.617188 21.113281 -21.960938 21.0625 -22.359375 L 20.1875 -20.515625 C 19.988281 -20.117188 19.796875 -19.710938 19.609375 -19.296875 C 19.429688 -18.878906 19.257812 -18.460938 19.09375 -18.046875 L 17.75 -14.546875 C 17.5625 -13.953125 17.1875 -13.671875 16.625 -13.703125 C 16.15625 -13.703125 15.691406 -13.734375 15.234375 -13.796875 C 14.773438 -13.867188 14.320312 -14.019531 13.875 -14.25 C 13.789062 -14.300781 13.707031 -14.332031 13.625 -14.34375 C 13.539062 -14.363281 13.457031 -14.398438 13.375 -14.453125 C 12.976562 -14.535156 12.726562 -14.757812 12.625 -15.125 C 12.3125 -15.90625 11.972656 -16.675781 11.609375 -17.4375 C 11.253906 -18.207031 10.960938 -18.992188 10.734375 -19.796875 C 10.535156 -20.410156 10.332031 -21.023438 10.125 -21.640625 C 9.914062 -22.253906 9.703125 -22.867188 9.484375 -23.484375 L 8.234375 -26.609375 C 8.203125 -26.691406 8.117188 -26.765625 7.984375 -26.828125 C 8.035156 -26.460938 8.066406 -26.113281 8.078125 -25.78125 C 8.097656 -25.445312 8.117188 -25.097656 8.140625 -24.734375 C 8.203125 -24.003906 8.238281 -23.269531 8.25 -22.53125 C 8.257812 -21.800781 8.296875 -21.0625 8.359375 -20.3125 C 8.441406 -19.113281 8.515625 -17.914062 8.578125 -16.71875 C 8.648438 -15.519531 8.742188 -14.304688 8.859375 -13.078125 C 8.972656 -11.492188 9.054688 -9.929688 9.109375 -8.390625 C 9.160156 -6.859375 9.160156 -5.300781 9.109375 -3.71875 C 9.078125 -3.1875 9.0625 -2.671875 9.0625 -2.171875 C 9.0625 -1.671875 9.0625 -1.15625 9.0625 -0.625 C 9.0625 -0.570312 9.054688 -0.503906 9.046875 -0.421875 C 9.035156 -0.335938 9.03125 -0.253906 9.03125 -0.171875 L 8.390625 -0.171875 C 8.003906 -0.109375 7.753906 -0.113281 7.640625 -0.1875 C 7.535156 -0.257812 7.398438 -0.460938 7.234375 -0.796875 C 7.203125 -0.679688 7.171875 -0.582031 7.140625 -0.5 C 7.117188 -0.414062 7.09375 -0.347656 7.0625 -0.296875 L 6.4375 -0.375 C 6.125 -0.425781 5.804688 -0.492188 5.484375 -0.578125 C 5.171875 -0.660156 4.859375 -0.742188 4.546875 -0.828125 C 4.273438 -0.921875 4.039062 -1.144531 3.84375 -1.5 C 3.375 -2.363281 3.046875 -3.253906 2.859375 -4.171875 C 2.679688 -5.097656 2.5625 -6.035156 2.5 -6.984375 L 2.09375 -11.03125 L 1.671875 -15.171875 C 1.671875 -15.585938 1.648438 -16.003906 1.609375 -16.421875 C 1.566406 -16.835938 1.570312 -17.253906 1.625 -17.671875 C 1.6875 -18.003906 1.6875 -18.335938 1.625 -18.671875 C 1.570312 -19.003906 1.546875 -19.335938 1.546875 -19.671875 C 1.546875 -20.066406 1.550781 -20.460938 1.5625 -20.859375 C 1.582031 -21.265625 1.59375 -21.664062 1.59375 -22.0625 C 1.59375 -22.28125 1.582031 -22.492188 1.5625 -22.703125 C 1.550781 -22.910156 1.546875 -23.128906 1.546875 -23.359375 C 1.578125 -24.492188 1.59375 -25.617188 1.59375 -26.734375 C 1.59375 -27.847656 1.617188 -28.976562 1.671875 -30.125 C 1.703125 -30.757812 1.742188 -31.394531 1.796875 -32.03125 C 1.847656 -32.675781 1.90625 -33.320312 1.96875 -33.96875 C 1.988281 -34.101562 2.023438 -34.226562 2.078125 -34.34375 C 2.140625 -34.457031 2.195312 -34.582031 2.25 -34.71875 C 2.3125 -34.851562 2.382812 -34.984375 2.46875 -35.109375 C 2.550781 -35.242188 2.632812 -35.378906 2.71875 -35.515625 C 2.914062 -35.847656 3.164062 -36.070312 3.46875 -36.1875 C 3.664062 -36.289062 3.878906 -36.382812 4.109375 -36.46875 C 4.347656 -36.550781 4.550781 -36.71875 4.71875 -36.96875 C 4.863281 -37.195312 5.0625 -37.363281 5.3125 -37.46875 C 5.5625 -37.582031 5.820312 -37.722656 6.09375 -37.890625 Z M 27.453125 -9.6875 C 27.453125 -9.882812 27.441406 -10.050781 27.421875 -10.1875 C 27.410156 -10.332031 27.390625 -10.472656 27.359375 -10.609375 L 27.359375 -11.484375 C 27.335938 -11.210938 27.328125 -10.941406 27.328125 -10.671875 C 27.328125 -10.410156 27.328125 -10.140625 27.328125 -9.859375 L 27.359375 -9.8125 C 27.359375 -9.789062 27.390625 -9.75 27.453125 -9.6875 Z M 27.484375 -8.109375 L 27.484375 -8.859375 L 27.453125 -8.8125 L 27.453125 -8.109375 Z M 27.484375 -8.109375 "/></g></g></g><g fill="#00bf63" fill-opacity="1"><g transform="translate(185.515963, 193.601414)"><g><path d="M 20.140625 1.296875 C 19.972656 1.210938 19.789062 1.191406 19.59375 1.234375 C 19.394531 1.273438 19.210938 1.265625 19.046875 1.203125 C 18.878906 1.148438 18.753906 0.972656 18.671875 0.671875 C 18.617188 0.773438 18.582031 0.851562 18.5625 0.90625 C 18.550781 0.96875 18.519531 1.054688 18.46875 1.171875 C 18.269531 1.117188 18.085938 1.070312 17.921875 1.03125 C 17.753906 0.988281 17.585938 0.9375 17.421875 0.875 C 17.253906 0.789062 17.113281 0.765625 17 0.796875 C 16.445312 0.816406 16.054688 0.550781 15.828125 0 C 15.691406 -0.46875 15.5625 -0.953125 15.4375 -1.453125 C 15.3125 -1.960938 15.179688 -2.453125 15.046875 -2.921875 L 14.375 -5.46875 L 13.78125 -8.390625 C 13.695312 -8.390625 13.613281 -8.394531 13.53125 -8.40625 C 13.445312 -8.425781 13.363281 -8.4375 13.28125 -8.4375 L 9.5625 -8.609375 C 9.34375 -8.609375 9.191406 -8.578125 9.109375 -8.515625 C 9.023438 -8.460938 8.957031 -8.328125 8.90625 -8.109375 L 8.5625 -6.984375 C 8.53125 -6.898438 8.492188 -6.8125 8.453125 -6.71875 C 8.410156 -6.632812 8.390625 -6.550781 8.390625 -6.46875 C 8.390625 -6.082031 8.3125 -5.710938 8.15625 -5.359375 C 8.007812 -5.015625 7.867188 -4.660156 7.734375 -4.296875 L 7.5625 -3.796875 C 7.425781 -3.273438 7.28125 -2.773438 7.125 -2.296875 C 6.96875 -1.828125 6.75 -1.351562 6.46875 -0.875 C 6.25 -0.539062 5.988281 -0.398438 5.6875 -0.453125 C 5.457031 -0.484375 5.242188 -0.484375 5.046875 -0.453125 C 4.859375 -0.429688 4.691406 -0.53125 4.546875 -0.75 C 4.046875 -0.53125 3.578125 -0.585938 3.140625 -0.921875 C 2.972656 -0.972656 2.890625 -1 2.890625 -1 C 2.109375 -0.914062 1.632812 -1.222656 1.46875 -1.921875 L 1.125 -4.46875 C 1.070312 -4.882812 1.023438 -5.300781 0.984375 -5.71875 C 0.941406 -6.132812 0.890625 -6.554688 0.828125 -6.984375 L 0.828125 -8.140625 C 0.828125 -8.484375 0.816406 -8.695312 0.796875 -8.78125 C 0.648438 -9.445312 0.570312 -10.101562 0.5625 -10.75 C 0.550781 -11.40625 0.570312 -12.070312 0.625 -12.75 C 0.65625 -13.164062 0.71875 -13.570312 0.8125 -13.96875 C 0.914062 -14.375 1.007812 -14.785156 1.09375 -15.203125 C 1.175781 -15.679688 1.257812 -16.148438 1.34375 -16.609375 C 1.425781 -17.066406 1.519531 -17.53125 1.625 -18 L 2.921875 -23.234375 L 4.046875 -27.453125 L 5.21875 -31.296875 C 5.332031 -31.660156 5.429688 -32.019531 5.515625 -32.375 C 5.597656 -32.738281 5.707031 -33.085938 5.84375 -33.421875 C 6.070312 -33.953125 6.28125 -34.488281 6.46875 -35.03125 C 6.664062 -35.570312 6.929688 -36.082031 7.265625 -36.5625 L 7.390625 -36.71875 C 7.671875 -37.226562 7.863281 -37.550781 7.96875 -37.6875 C 8.082031 -37.820312 8.351562 -37.988281 8.78125 -38.1875 C 8.832031 -38.238281 8.878906 -38.265625 8.921875 -38.265625 C 8.960938 -38.265625 9.007812 -38.296875 9.0625 -38.359375 C 9.09375 -38.378906 9.117188 -38.40625 9.140625 -38.4375 C 9.171875 -38.46875 9.203125 -38.507812 9.234375 -38.5625 L 9.484375 -38.265625 L 9.609375 -38.359375 L 9.78125 -38.734375 C 9.882812 -38.835938 9.972656 -38.9375 10.046875 -39.03125 C 10.117188 -39.132812 10.265625 -39.21875 10.484375 -39.28125 C 10.679688 -39.332031 10.863281 -39.441406 11.03125 -39.609375 C 11.195312 -39.773438 11.378906 -39.925781 11.578125 -40.0625 C 12.078125 -39.644531 12.410156 -39.128906 12.578125 -38.515625 L 12.828125 -38.5625 C 13.191406 -38.78125 13.421875 -38.882812 13.515625 -38.875 C 13.609375 -38.863281 13.8125 -38.660156 14.125 -38.265625 C 14.238281 -38.128906 14.335938 -37.960938 14.421875 -37.765625 C 14.503906 -37.578125 14.570312 -37.398438 14.625 -37.234375 C 14.988281 -36.203125 15.300781 -35.15625 15.5625 -34.09375 C 15.820312 -33.03125 16.023438 -31.941406 16.171875 -30.828125 C 16.335938 -29.492188 16.484375 -28.148438 16.609375 -26.796875 C 16.734375 -25.453125 16.863281 -24.109375 17 -22.765625 C 17.144531 -21.710938 17.300781 -20.675781 17.46875 -19.65625 C 17.632812 -18.644531 17.785156 -17.609375 17.921875 -16.546875 C 18.066406 -15.546875 18.210938 -14.535156 18.359375 -13.515625 C 18.515625 -12.492188 18.675781 -11.484375 18.84375 -10.484375 L 19.71875 -5.09375 C 19.832031 -4.257812 19.921875 -3.414062 19.984375 -2.5625 C 20.054688 -1.71875 20.125 -0.878906 20.1875 -0.046875 C 20.207031 0.179688 20.203125 0.398438 20.171875 0.609375 C 20.148438 0.816406 20.140625 1.046875 20.140625 1.296875 Z M 10.03125 -12.109375 L 13.25 -12.109375 C 13.050781 -13.503906 12.851562 -14.878906 12.65625 -16.234375 C 12.46875 -17.585938 12.257812 -18.945312 12.03125 -20.3125 C 11.976562 -20.164062 11.921875 -20.050781 11.859375 -19.96875 C 11.804688 -19.882812 11.765625 -19.785156 11.734375 -19.671875 C 11.679688 -19.171875 11.601562 -18.679688 11.5 -18.203125 C 11.40625 -17.734375 11.25 -17.265625 11.03125 -16.796875 L 10.984375 -16.546875 C 10.929688 -16.296875 10.882812 -16.050781 10.84375 -15.8125 C 10.800781 -15.570312 10.753906 -15.34375 10.703125 -15.125 C 10.640625 -14.875 10.550781 -14.628906 10.4375 -14.390625 C 10.332031 -14.148438 10.25 -13.921875 10.1875 -13.703125 C 10.132812 -13.453125 10.097656 -13.191406 10.078125 -12.921875 C 10.066406 -12.660156 10.050781 -12.390625 10.03125 -12.109375 Z M 10.03125 -12.109375 "/></g></g></g><g fill="#00bf63" fill-opacity="1"><g transform="translate(207.072461, 193.601414)"><g><path d="M 4.171875 -35.640625 L 4.46875 -35.515625 C 4.632812 -35.648438 4.796875 -35.78125 4.953125 -35.90625 C 5.109375 -36.03125 5.28125 -36.164062 5.46875 -36.3125 C 5.46875 -36.164062 5.472656 -36.035156 5.484375 -35.921875 C 5.503906 -35.816406 5.53125 -35.679688 5.5625 -35.515625 C 5.613281 -35.628906 5.648438 -35.71875 5.671875 -35.78125 C 5.703125 -35.851562 5.75 -35.914062 5.8125 -35.96875 C 5.832031 -36.03125 5.84375 -36.101562 5.84375 -36.1875 C 5.84375 -36.269531 5.875 -36.335938 5.9375 -36.390625 C 6.070312 -36.523438 6.164062 -36.691406 6.21875 -36.890625 C 6.28125 -37.085938 6.460938 -37.144531 6.765625 -37.0625 C 6.960938 -37.195312 7.148438 -37.34375 7.328125 -37.5 C 7.515625 -37.65625 7.703125 -37.816406 7.890625 -37.984375 C 8.367188 -37.921875 8.65625 -37.707031 8.75 -37.34375 C 8.851562 -36.988281 8.972656 -36.65625 9.109375 -36.34375 L 9.484375 -36.46875 C 9.765625 -36.613281 10 -36.675781 10.1875 -36.65625 C 10.382812 -36.644531 10.597656 -36.53125 10.828125 -36.3125 C 11.296875 -35.75 11.679688 -35.175781 11.984375 -34.59375 C 12.546875 -33.59375 13.019531 -32.546875 13.40625 -31.453125 C 13.800781 -30.367188 14.191406 -29.269531 14.578125 -28.15625 C 14.828125 -27.375 15.09375 -26.609375 15.375 -25.859375 C 15.65625 -25.109375 15.921875 -24.34375 16.171875 -23.5625 C 16.472656 -22.59375 16.765625 -21.601562 17.046875 -20.59375 C 17.328125 -19.59375 17.617188 -18.601562 17.921875 -17.625 C 18.066406 -17.15625 18.1875 -16.679688 18.28125 -16.203125 C 18.375 -15.734375 18.492188 -15.265625 18.640625 -14.796875 C 18.660156 -14.734375 18.6875 -14.664062 18.71875 -14.59375 C 18.75 -14.53125 18.789062 -14.457031 18.84375 -14.375 C 18.8125 -15.539062 18.8125 -16.679688 18.84375 -17.796875 C 18.875 -18.910156 18.941406 -20.039062 19.046875 -21.1875 C 19.109375 -21.539062 19.140625 -21.898438 19.140625 -22.265625 C 19.140625 -22.628906 19.164062 -23.003906 19.21875 -23.390625 L 19.59375 -26.65625 L 19.96875 -29.578125 C 20.03125 -30.191406 20.109375 -30.789062 20.203125 -31.375 C 20.296875 -31.957031 20.457031 -32.53125 20.6875 -33.09375 C 20.820312 -33.425781 20.972656 -33.75 21.140625 -34.0625 C 21.304688 -34.382812 21.457031 -34.703125 21.59375 -35.015625 C 21.738281 -35.179688 21.820312 -35.265625 21.84375 -35.265625 C 22.207031 -35.378906 22.515625 -35.546875 22.765625 -35.765625 C 23.015625 -35.984375 23.296875 -36.191406 23.609375 -36.390625 C 23.828125 -36.523438 23.992188 -36.570312 24.109375 -36.53125 C 24.222656 -36.488281 24.332031 -36.359375 24.4375 -36.140625 C 24.550781 -35.941406 24.628906 -35.742188 24.671875 -35.546875 C 24.710938 -35.359375 24.75 -35.164062 24.78125 -34.96875 C 25 -33.914062 25.132812 -32.835938 25.1875 -31.734375 C 25.25 -30.628906 25.320312 -29.535156 25.40625 -28.453125 C 25.539062 -26.054688 25.570312 -23.671875 25.5 -21.296875 C 25.4375 -18.929688 25.375 -16.550781 25.3125 -14.15625 C 25.257812 -12.769531 25.234375 -11.382812 25.234375 -10 C 25.234375 -8.625 25.21875 -7.226562 25.1875 -5.8125 C 25.132812 -4.632812 25.09375 -3.460938 25.0625 -2.296875 C 25.039062 -1.128906 25 0.0507812 24.9375 1.25 C 24.9375 1.53125 24.910156 1.691406 24.859375 1.734375 C 24.804688 1.773438 24.625 1.796875 24.3125 1.796875 C 24.257812 1.796875 24.195312 1.800781 24.125 1.8125 C 24.0625 1.832031 24 1.84375 23.9375 1.84375 C 23.632812 1.863281 23.425781 1.832031 23.3125 1.75 C 23.195312 1.664062 23.070312 1.429688 22.9375 1.046875 C 22.882812 1.179688 22.847656 1.289062 22.828125 1.375 C 22.816406 1.457031 22.785156 1.53125 22.734375 1.59375 C 21.890625 1.78125 20.96875 1.75 19.96875 1.5 C 19.382812 1.332031 18.984375 1.015625 18.765625 0.546875 C 18.535156 0.0976562 18.328125 -0.335938 18.140625 -0.765625 C 17.960938 -1.203125 17.78125 -1.644531 17.59375 -2.09375 C 17.425781 -2.476562 17.25 -2.84375 17.0625 -3.1875 C 16.882812 -3.539062 16.726562 -3.910156 16.59375 -4.296875 C 16.226562 -5.109375 15.867188 -5.910156 15.515625 -6.703125 C 15.171875 -7.492188 14.847656 -8.296875 14.546875 -9.109375 C 14.347656 -9.640625 14.175781 -10.175781 14.03125 -10.71875 C 13.894531 -11.257812 13.742188 -11.796875 13.578125 -12.328125 L 12.40625 -16.171875 L 11.40625 -19.796875 C 11.207031 -20.472656 11.023438 -21.144531 10.859375 -21.8125 C 10.691406 -22.476562 10.5 -23.144531 10.28125 -23.8125 C 10.25 -23.726562 10.222656 -23.648438 10.203125 -23.578125 C 10.191406 -23.515625 10.1875 -23.441406 10.1875 -23.359375 C 10.1875 -22.691406 10.191406 -22.015625 10.203125 -21.328125 C 10.222656 -20.648438 10.234375 -19.972656 10.234375 -19.296875 C 10.234375 -18.128906 10.210938 -16.957031 10.171875 -15.78125 C 10.128906 -14.613281 10.007812 -13.445312 9.8125 -12.28125 C 9.625 -11.03125 9.519531 -9.804688 9.5 -8.609375 C 9.488281 -7.410156 9.457031 -6.1875 9.40625 -4.9375 C 9.34375 -4.34375 9.289062 -3.742188 9.25 -3.140625 C 9.207031 -2.546875 9.160156 -1.945312 9.109375 -1.34375 C 9.109375 -1.28125 9.097656 -1.222656 9.078125 -1.171875 C 9.066406 -1.117188 9.0625 -1.0625 9.0625 -1 C 8.976562 -0.632812 8.875 -0.410156 8.75 -0.328125 C 8.625 -0.242188 8.394531 -0.234375 8.0625 -0.296875 C 7.925781 -0.316406 7.785156 -0.34375 7.640625 -0.375 C 7.503906 -0.40625 7.367188 -0.40625 7.234375 -0.375 C 7.085938 -0.375 6.9375 -0.398438 6.78125 -0.453125 C 6.632812 -0.515625 6.488281 -0.554688 6.34375 -0.578125 C 5.707031 -0.660156 5.28125 -1.066406 5.0625 -1.796875 C 4.832031 -2.609375 4.625 -3.429688 4.4375 -4.265625 C 4.257812 -5.097656 4.078125 -5.929688 3.890625 -6.765625 C 3.660156 -7.628906 3.460938 -8.492188 3.296875 -9.359375 C 3.128906 -10.222656 2.945312 -11.097656 2.75 -11.984375 C 2.582031 -12.796875 2.410156 -13.597656 2.234375 -14.390625 C 2.054688 -15.179688 1.894531 -15.984375 1.75 -16.796875 C 1.695312 -17.097656 1.671875 -17.410156 1.671875 -17.734375 C 1.671875 -18.054688 1.613281 -18.367188 1.5 -18.671875 C 1.445312 -18.785156 1.429688 -18.90625 1.453125 -19.03125 C 1.484375 -19.15625 1.5 -19.273438 1.5 -19.390625 C 1.5 -19.578125 1.5 -19.753906 1.5 -19.921875 C 1.5 -20.097656 1.488281 -20.28125 1.46875 -20.46875 C 1.46875 -20.53125 1.457031 -20.585938 1.4375 -20.640625 C 1.425781 -20.691406 1.4375 -20.75 1.46875 -20.8125 C 1.601562 -21.445312 1.617188 -22.078125 1.515625 -22.703125 C 1.421875 -23.328125 1.414062 -23.960938 1.5 -24.609375 C 1.5625 -25.078125 1.597656 -25.539062 1.609375 -26 C 1.617188 -26.46875 1.640625 -26.9375 1.671875 -27.40625 C 1.722656 -27.96875 1.769531 -28.519531 1.8125 -29.0625 C 1.851562 -29.601562 1.890625 -30.148438 1.921875 -30.703125 C 2.054688 -31.765625 2.390625 -32.726562 2.921875 -33.59375 C 3.003906 -33.757812 3.085938 -33.9375 3.171875 -34.125 C 3.253906 -34.320312 3.351562 -34.503906 3.46875 -34.671875 C 3.582031 -34.835938 3.691406 -35.003906 3.796875 -35.171875 C 3.910156 -35.347656 4.035156 -35.503906 4.171875 -35.640625 Z M 22.9375 -4.9375 L 23.484375 -31.125 C 23.316406 -26.726562 23.160156 -22.363281 23.015625 -18.03125 C 22.878906 -13.695312 22.851562 -9.332031 22.9375 -4.9375 Z M 7.015625 -28.578125 L 7.1875 -15.375 L 7.359375 -15.375 L 7.1875 -28.578125 Z M 7.015625 -28.578125 "/></g></g></g><g fill="#00bf63" fill-opacity="1"><g transform="translate(234.602953, 193.601414)"><g><path d="M 20.140625 1.296875 C 19.972656 1.210938 19.789062 1.191406 19.59375 1.234375 C 19.394531 1.273438 19.210938 1.265625 19.046875 1.203125 C 18.878906 1.148438 18.753906 0.972656 18.671875 0.671875 C 18.617188 0.773438 18.582031 0.851562 18.5625 0.90625 C 18.550781 0.96875 18.519531 1.054688 18.46875 1.171875 C 18.269531 1.117188 18.085938 1.070312 17.921875 1.03125 C 17.753906 0.988281 17.585938 0.9375 17.421875 0.875 C 17.253906 0.789062 17.113281 0.765625 17 0.796875 C 16.445312 0.816406 16.054688 0.550781 15.828125 0 C 15.691406 -0.46875 15.5625 -0.953125 15.4375 -1.453125 C 15.3125 -1.960938 15.179688 -2.453125 15.046875 -2.921875 L 14.375 -5.46875 L 13.78125 -8.390625 C 13.695312 -8.390625 13.613281 -8.394531 13.53125 -8.40625 C 13.445312 -8.425781 13.363281 -8.4375 13.28125 -8.4375 L 9.5625 -8.609375 C 9.34375 -8.609375 9.191406 -8.578125 9.109375 -8.515625 C 9.023438 -8.460938 8.957031 -8.328125 8.90625 -8.109375 L 8.5625 -6.984375 C 8.53125 -6.898438 8.492188 -6.8125 8.453125 -6.71875 C 8.410156 -6.632812 8.390625 -6.550781 8.390625 -6.46875 C 8.390625 -6.082031 8.3125 -5.710938 8.15625 -5.359375 C 8.007812 -5.015625 7.867188 -4.660156 7.734375 -4.296875 L 7.5625 -3.796875 C 7.425781 -3.273438 7.28125 -2.773438 7.125 -2.296875 C 6.96875 -1.828125 6.75 -1.351562 6.46875 -0.875 C 6.25 -0.539062 5.988281 -0.398438 5.6875 -0.453125 C 5.457031 -0.484375 5.242188 -0.484375 5.046875 -0.453125 C 4.859375 -0.429688 4.691406 -0.53125 4.546875 -0.75 C 4.046875 -0.53125 3.578125 -0.585938 3.140625 -0.921875 C 2.972656 -0.972656 2.890625 -1 2.890625 -1 C 2.109375 -0.914062 1.632812 -1.222656 1.46875 -1.921875 L 1.125 -4.46875 C 1.070312 -4.882812 1.023438 -5.300781 0.984375 -5.71875 C 0.941406 -6.132812 0.890625 -6.554688 0.828125 -6.984375 L 0.828125 -8.140625 C 0.828125 -8.484375 0.816406 -8.695312 0.796875 -8.78125 C 0.648438 -9.445312 0.570312 -10.101562 0.5625 -10.75 C 0.550781 -11.40625 0.570312 -12.070312 0.625 -12.75 C 0.65625 -13.164062 0.71875 -13.570312 0.8125 -13.96875 C 0.914062 -14.375 1.007812 -14.785156 1.09375 -15.203125 C 1.175781 -15.679688 1.257812 -16.148438 1.34375 -16.609375 C 1.425781 -17.066406 1.519531 -17.53125 1.625 -18 L 2.921875 -23.234375 L 4.046875 -27.453125 L 5.21875 -31.296875 C 5.332031 -31.660156 5.429688 -32.019531 5.515625 -32.375 C 5.597656 -32.738281 5.707031 -33.085938 5.84375 -33.421875 C 6.070312 -33.953125 6.28125 -34.488281 6.46875 -35.03125 C 6.664062 -35.570312 6.929688 -36.082031 7.265625 -36.5625 L 7.390625 -36.71875 C 7.671875 -37.226562 7.863281 -37.550781 7.96875 -37.6875 C 8.082031 -37.820312 8.351562 -37.988281 8.78125 -38.1875 C 8.832031 -38.238281 8.878906 -38.265625 8.921875 -38.265625 C 8.960938 -38.265625 9.007812 -38.296875 9.0625 -38.359375 C 9.09375 -38.378906 9.117188 -38.40625 9.140625 -38.4375 C 9.171875 -38.46875 9.203125 -38.507812 9.234375 -38.5625 L 9.484375 -38.265625 L 9.609375 -38.359375 L 9.78125 -38.734375 C 9.882812 -38.835938 9.972656 -38.9375 10.046875 -39.03125 C 10.117188 -39.132812 10.265625 -39.21875 10.484375 -39.28125 C 10.679688 -39.332031 10.863281 -39.441406 11.03125 -39.609375 C 11.195312 -39.773438 11.378906 -39.925781 11.578125 -40.0625 C 12.078125 -39.644531 12.410156 -39.128906 12.578125 -38.515625 L 12.828125 -38.5625 C 13.191406 -38.78125 13.421875 -38.882812 13.515625 -38.875 C 13.609375 -38.863281 13.8125 -38.660156 14.125 -38.265625 C 14.238281 -38.128906 14.335938 -37.960938 14.421875 -37.765625 C 14.503906 -37.578125 14.570312 -37.398438 14.625 -37.234375 C 14.988281 -36.203125 15.300781 -35.15625 15.5625 -34.09375 C 15.820312 -33.03125 16.023438 -31.941406 16.171875 -30.828125 C 16.335938 -29.492188 16.484375 -28.148438 16.609375 -26.796875 C 16.734375 -25.453125 16.863281 -24.109375 17 -22.765625 C 17.144531 -21.710938 17.300781 -20.675781 17.46875 -19.65625 C 17.632812 -18.644531 17.785156 -17.609375 17.921875 -16.546875 C 18.066406 -15.546875 18.210938 -14.535156 18.359375 -13.515625 C 18.515625 -12.492188 18.675781 -11.484375 18.84375 -10.484375 L 19.71875 -5.09375 C 19.832031 -4.257812 19.921875 -3.414062 19.984375 -2.5625 C 20.054688 -1.71875 20.125 -0.878906 20.1875 -0.046875 C 20.207031 0.179688 20.203125 0.398438 20.171875 0.609375 C 20.148438 0.816406 20.140625 1.046875 20.140625 1.296875 Z M 10.03125 -12.109375 L 13.25 -12.109375 C 13.050781 -13.503906 12.851562 -14.878906 12.65625 -16.234375 C 12.46875 -17.585938 12.257812 -18.945312 12.03125 -20.3125 C 11.976562 -20.164062 11.921875 -20.050781 11.859375 -19.96875 C 11.804688 -19.882812 11.765625 -19.785156 11.734375 -19.671875 C 11.679688 -19.171875 11.601562 -18.679688 11.5 -18.203125 C 11.40625 -17.734375 11.25 -17.265625 11.03125 -16.796875 L 10.984375 -16.546875 C 10.929688 -16.296875 10.882812 -16.050781 10.84375 -15.8125 C 10.800781 -15.570312 10.753906 -15.34375 10.703125 -15.125 C 10.640625 -14.875 10.550781 -14.628906 10.4375 -14.390625 C 10.332031 -14.148438 10.25 -13.921875 10.1875 -13.703125 C 10.132812 -13.453125 10.097656 -13.191406 10.078125 -12.921875 C 10.066406 -12.660156 10.050781 -12.390625 10.03125 -12.109375 Z M 10.03125 -12.109375 "/></g></g></g><g fill="#00bf63" fill-opacity="1"><g transform="translate(256.159452, 193.601414)"><g><path d="M 18.046875 -8.9375 C 18.492188 -8.550781 18.804688 -8.113281 18.984375 -7.625 C 19.171875 -7.132812 19.289062 -6.625 19.34375 -6.09375 C 19.457031 -5.257812 19.5625 -4.425781 19.65625 -3.59375 C 19.75 -2.757812 19.828125 -1.910156 19.890625 -1.046875 C 19.910156 -0.648438 19.898438 -0.242188 19.859375 0.171875 C 19.816406 0.585938 19.785156 1.019531 19.765625 1.46875 C 18.816406 1.488281 17.882812 1.332031 16.96875 1 C 16.65625 0.863281 16.414062 0.660156 16.25 0.390625 C 16.082031 0.128906 15.929688 -0.148438 15.796875 -0.453125 C 15.648438 -0.734375 15.519531 -1.015625 15.40625 -1.296875 C 15.300781 -1.578125 15.179688 -1.867188 15.046875 -2.171875 L 14.203125 -1.171875 C 13.648438 -0.421875 12.867188 0.0234375 11.859375 0.171875 C 10.828125 0.304688 9.832031 0.289062 8.875 0.125 C 7.914062 -0.0390625 6.960938 -0.289062 6.015625 -0.625 C 5.566406 -0.757812 5.160156 -0.957031 4.796875 -1.21875 C 4.441406 -1.488281 4.148438 -1.847656 3.921875 -2.296875 C 3.734375 -2.597656 3.539062 -2.878906 3.34375 -3.140625 C 3.144531 -3.410156 2.976562 -3.703125 2.84375 -4.015625 C 2.644531 -4.398438 2.46875 -4.800781 2.3125 -5.21875 C 2.164062 -5.632812 2.007812 -6.039062 1.84375 -6.4375 L 1.421875 -7.5625 C 1.203125 -8.226562 1.035156 -8.898438 0.921875 -9.578125 C 0.804688 -10.265625 0.707031 -10.957031 0.625 -11.65625 C 0.507812 -12.851562 0.507812 -14.050781 0.625 -15.25 C 0.757812 -16.832031 1.050781 -18.421875 1.5 -20.015625 C 1.644531 -20.484375 1.765625 -20.945312 1.859375 -21.40625 C 1.953125 -21.875 2.070312 -22.34375 2.21875 -22.8125 L 2.296875 -23.109375 C 2.660156 -23.910156 3.007812 -24.726562 3.34375 -25.5625 C 3.675781 -26.40625 4.023438 -27.242188 4.390625 -28.078125 C 4.578125 -28.492188 4.78125 -28.910156 5 -29.328125 C 5.226562 -29.742188 5.46875 -30.160156 5.71875 -30.578125 C 6.03125 -31.140625 6.375 -31.691406 6.75 -32.234375 C 7.125 -32.773438 7.578125 -33.242188 8.109375 -33.640625 C 8.296875 -33.828125 8.488281 -33.960938 8.6875 -34.046875 C 9.1875 -34.191406 9.640625 -34.414062 10.046875 -34.71875 C 10.453125 -35.03125 10.863281 -35.335938 11.28125 -35.640625 C 11.695312 -35.941406 12.117188 -36.222656 12.546875 -36.484375 C 12.984375 -36.753906 13.4375 -36.972656 13.90625 -37.140625 C 14.519531 -37.335938 15.054688 -37.363281 15.515625 -37.21875 C 15.984375 -37.082031 16.367188 -36.65625 16.671875 -35.9375 C 16.804688 -35.601562 16.914062 -35.253906 17 -34.890625 C 17.082031 -34.523438 17.15625 -34.160156 17.21875 -33.796875 C 17.320312 -33.078125 17.394531 -32.375 17.4375 -31.6875 C 17.476562 -31.007812 17.472656 -30.304688 17.421875 -29.578125 C 17.421875 -29.078125 17.226562 -28.785156 16.84375 -28.703125 C 16.613281 -28.648438 16.394531 -28.539062 16.1875 -28.375 C 15.976562 -28.207031 15.75 -28.148438 15.5 -28.203125 C 15.195312 -27.953125 14.867188 -27.75 14.515625 -27.59375 C 14.171875 -27.4375 13.941406 -27.125 13.828125 -26.65625 C 13.773438 -26.519531 13.695312 -26.398438 13.59375 -26.296875 C 13.5 -26.203125 13.425781 -26.085938 13.375 -25.953125 C 13.3125 -25.785156 13.265625 -25.613281 13.234375 -25.4375 C 13.210938 -25.269531 13.175781 -25.101562 13.125 -24.9375 C 13.039062 -24.6875 12.945312 -24.441406 12.84375 -24.203125 C 12.75 -23.972656 12.617188 -23.742188 12.453125 -23.515625 C 12.304688 -23.378906 12.25 -23.253906 12.28125 -23.140625 C 12.34375 -22.890625 12.304688 -22.679688 12.171875 -22.515625 C 12.046875 -22.347656 11.957031 -22.15625 11.90625 -21.9375 C 11.851562 -21.789062 11.816406 -21.640625 11.796875 -21.484375 C 11.785156 -21.335938 11.753906 -21.195312 11.703125 -21.0625 C 11.640625 -20.914062 11.609375 -20.765625 11.609375 -20.609375 C 11.609375 -20.460938 11.566406 -20.347656 11.484375 -20.265625 C 11.265625 -19.984375 11.132812 -19.6875 11.09375 -19.375 C 11.050781 -19.070312 11.003906 -18.769531 10.953125 -18.46875 C 10.867188 -18.21875 10.785156 -17.96875 10.703125 -17.71875 C 10.617188 -17.46875 10.546875 -17.21875 10.484375 -16.96875 C 10.316406 -16.238281 10.148438 -15.5 9.984375 -14.75 C 9.816406 -14 9.632812 -13.25 9.4375 -12.5 C 9.300781 -11.988281 9.175781 -11.488281 9.0625 -11 C 8.957031 -10.519531 8.832031 -10.03125 8.6875 -9.53125 C 8.488281 -8.664062 8.320312 -7.785156 8.1875 -6.890625 C 8.132812 -6.472656 8.160156 -6.082031 8.265625 -5.71875 C 8.378906 -5.363281 8.535156 -5.003906 8.734375 -4.640625 C 9.015625 -3.972656 9.570312 -3.554688 10.40625 -3.390625 L 12.109375 -3.015625 C 12.554688 -2.898438 12.894531 -3.035156 13.125 -3.421875 C 13.394531 -3.785156 13.65625 -4.140625 13.90625 -4.484375 C 14.164062 -4.835938 14.347656 -5.25 14.453125 -5.71875 C 14.535156 -6 14.65625 -6.257812 14.8125 -6.5 C 14.96875 -6.738281 15.113281 -6.984375 15.25 -7.234375 C 15.300781 -7.316406 15.367188 -7.382812 15.453125 -7.4375 C 15.847656 -7.570312 16.203125 -7.78125 16.515625 -8.0625 C 16.835938 -8.34375 17.195312 -8.582031 17.59375 -8.78125 C 17.644531 -8.800781 17.703125 -8.828125 17.765625 -8.859375 C 17.835938 -8.890625 17.929688 -8.914062 18.046875 -8.9375 Z M 5.09375 -20.8125 L 6.9375 -26.734375 C 6.320312 -25.847656 5.890625 -24.898438 5.640625 -23.890625 C 5.390625 -22.890625 5.207031 -21.863281 5.09375 -20.8125 Z M 5.09375 -20.8125 "/></g></g></g><g fill="#00bf63" fill-opacity="1"><g transform="translate(276.713313, 193.601414)"><g><path d="M 4.671875 -36.46875 L 4.890625 -36.265625 C 5.003906 -36.515625 5.128906 -36.722656 5.265625 -36.890625 C 5.398438 -37.054688 5.59375 -37.179688 5.84375 -37.265625 C 5.988281 -37.328125 6.125 -37.40625 6.25 -37.5 C 6.375 -37.59375 6.519531 -37.695312 6.6875 -37.8125 L 7.5625 -36.890625 C 9.0625 -37.222656 10.578125 -37.304688 12.109375 -37.140625 C 13.648438 -36.972656 15.1875 -36.804688 16.71875 -36.640625 C 16.9375 -36.085938 16.976562 -35.515625 16.84375 -34.921875 C 16.8125 -34.648438 16.613281 -34.414062 16.25 -34.21875 C 16 -34.050781 15.691406 -33.953125 15.328125 -33.921875 C 14.210938 -33.703125 13.070312 -33.535156 11.90625 -33.421875 C 10.738281 -33.316406 9.5 -33.289062 8.1875 -33.34375 C 8.269531 -32.3125 8.34375 -31.28125 8.40625 -30.25 C 8.476562 -29.21875 8.546875 -28.1875 8.609375 -27.15625 C 8.660156 -26.09375 8.6875 -25.046875 8.6875 -24.015625 C 8.6875 -22.992188 8.703125 -21.953125 8.734375 -20.890625 L 9.4375 -20.890625 C 10.195312 -20.941406 10.867188 -20.882812 11.453125 -20.71875 C 11.921875 -20.582031 12.226562 -20.273438 12.375 -19.796875 C 12.457031 -19.328125 12.507812 -18.851562 12.53125 -18.375 C 12.5625 -17.90625 12.550781 -17.421875 12.5 -16.921875 L 8.609375 -16.921875 C 8.460938 -14.773438 8.347656 -12.648438 8.265625 -10.546875 C 8.179688 -8.441406 7.988281 -6.347656 7.6875 -4.265625 C 7.90625 -4.117188 8.09375 -4.070312 8.25 -4.125 C 8.40625 -4.1875 8.550781 -4.234375 8.6875 -4.265625 L 12.578125 -4.8125 C 13.046875 -4.863281 13.492188 -4.898438 13.921875 -4.921875 C 14.359375 -4.953125 14.816406 -4.984375 15.296875 -5.015625 C 15.347656 -5.046875 15.398438 -5.050781 15.453125 -5.03125 C 15.515625 -5.019531 15.570312 -5.015625 15.625 -5.015625 C 16.125 -4.960938 16.453125 -4.863281 16.609375 -4.71875 C 16.765625 -4.582031 16.867188 -4.273438 16.921875 -3.796875 C 16.972656 -3.546875 17 -3.296875 17 -3.046875 C 17 -2.796875 17 -2.546875 17 -2.296875 C 17 -1.515625 16.640625 -1 15.921875 -0.75 C 15.773438 -0.695312 15.640625 -0.65625 15.515625 -0.625 C 15.390625 -0.59375 15.257812 -0.550781 15.125 -0.5 L 14.15625 -0.125 C 13.96875 -0.0078125 13.757812 0.0703125 13.53125 0.125 C 13.226562 0.238281 12.9375 0.328125 12.65625 0.390625 C 12.375 0.460938 12.097656 0.554688 11.828125 0.671875 C 10.992188 0.972656 10.144531 1.1875 9.28125 1.3125 C 8.414062 1.4375 7.535156 1.40625 6.640625 1.21875 C 6.140625 1.101562 5.628906 1.003906 5.109375 0.921875 C 4.597656 0.835938 4.09375 0.722656 3.59375 0.578125 C 3.375 0.523438 3.164062 0.457031 2.96875 0.375 C 2.769531 0.289062 2.695312 0.0976562 2.75 -0.203125 C 2.75 -0.265625 2.734375 -0.304688 2.703125 -0.328125 C 2.679688 -0.359375 2.65625 -0.398438 2.625 -0.453125 C 2.269531 -0.765625 2.03125 -1.113281 1.90625 -1.5 C 1.78125 -1.894531 1.644531 -2.285156 1.5 -2.671875 C 1.28125 -3.421875 1.15625 -4.175781 1.125 -4.9375 C 1.101562 -5.707031 1.0625 -6.484375 1 -7.265625 C 0.976562 -8.242188 0.929688 -9.195312 0.859375 -10.125 C 0.785156 -11.0625 0.722656 -12.003906 0.671875 -12.953125 C 0.609375 -13.816406 0.554688 -14.679688 0.515625 -15.546875 C 0.472656 -16.410156 0.453125 -17.273438 0.453125 -18.140625 C 0.453125 -18.804688 0.46875 -19.460938 0.5 -20.109375 C 0.53125 -20.765625 0.570312 -21.429688 0.625 -22.109375 C 0.65625 -22.441406 0.695312 -22.765625 0.75 -23.078125 C 0.800781 -23.398438 0.859375 -23.726562 0.921875 -24.0625 L 0.921875 -24.40625 C 0.972656 -24.988281 1.019531 -25.5625 1.0625 -26.125 C 1.101562 -26.695312 1.15625 -27.28125 1.21875 -27.875 C 1.269531 -28.476562 1.34375 -29.078125 1.4375 -29.671875 C 1.539062 -30.273438 1.660156 -30.882812 1.796875 -31.5 C 1.878906 -31.945312 1.972656 -32.382812 2.078125 -32.8125 C 2.191406 -33.25 2.332031 -33.675781 2.5 -34.09375 C 2.613281 -34.394531 2.75 -34.671875 2.90625 -34.921875 C 3.0625 -35.179688 3.222656 -35.4375 3.390625 -35.6875 C 3.523438 -35.90625 3.71875 -36.054688 3.96875 -36.140625 C 4.21875 -36.222656 4.453125 -36.332031 4.671875 -36.46875 Z M 5.9375 -31 C 5.875 -30.082031 5.820312 -28.988281 5.78125 -27.71875 C 5.738281 -26.457031 5.703125 -25.210938 5.671875 -23.984375 C 5.648438 -22.753906 5.644531 -21.707031 5.65625 -20.84375 C 5.675781 -19.976562 5.710938 -19.492188 5.765625 -19.390625 C 5.796875 -19.472656 5.820312 -19.539062 5.84375 -19.59375 C 5.875 -19.644531 5.890625 -19.703125 5.890625 -19.765625 C 5.921875 -21.660156 5.96875 -23.539062 6.03125 -25.40625 C 6.101562 -27.269531 6.070312 -29.132812 5.9375 -31 Z M 5.390625 -7.609375 C 5.554688 -9.859375 5.664062 -11.664062 5.71875 -13.03125 C 5.78125 -14.394531 5.800781 -15.429688 5.78125 -16.140625 C 5.769531 -16.859375 5.707031 -17.328125 5.59375 -17.546875 C 5.539062 -15.847656 5.503906 -14.175781 5.484375 -12.53125 C 5.472656 -10.882812 5.441406 -9.242188 5.390625 -7.609375 Z M 5.390625 -7.609375 "/></g></g></g><g fill="#00bf63" fill-opacity="1"><g transform="translate(294.426411, 193.601414)"><g><path d="M 15.296875 -18.546875 C 15.515625 -18.097656 15.742188 -17.671875 15.984375 -17.265625 C 16.222656 -16.867188 16.4375 -16.472656 16.625 -16.078125 C 16.875 -15.492188 17.109375 -14.910156 17.328125 -14.328125 C 17.554688 -13.742188 17.78125 -13.160156 18 -12.578125 C 18.34375 -11.660156 18.679688 -10.738281 19.015625 -9.8125 C 19.347656 -8.894531 19.664062 -7.976562 19.96875 -7.0625 C 20.195312 -6.5 20.394531 -5.945312 20.5625 -5.40625 C 20.726562 -4.863281 20.90625 -4.316406 21.09375 -3.765625 C 21.375 -2.898438 21.457031 -2.007812 21.34375 -1.09375 C 21.125 -0.945312 20.910156 -0.910156 20.703125 -0.984375 C 20.492188 -1.054688 20.28125 -1.09375 20.0625 -1.09375 C 18.863281 -1.175781 17.984375 -1.703125 17.421875 -2.671875 C 17.035156 -3.253906 16.644531 -3.832031 16.25 -4.40625 C 15.863281 -4.976562 15.488281 -5.570312 15.125 -6.1875 C 14.707031 -6.90625 14.300781 -7.640625 13.90625 -8.390625 C 13.519531 -9.148438 13.160156 -9.921875 12.828125 -10.703125 C 12.609375 -11.203125 12.378906 -11.691406 12.140625 -12.171875 C 11.898438 -12.660156 11.710938 -13.1875 11.578125 -13.75 C 11.378906 -14.53125 11.140625 -15.28125 10.859375 -16 C 10.722656 -15.945312 10.597656 -15.910156 10.484375 -15.890625 C 10.367188 -15.878906 10.242188 -15.847656 10.109375 -15.796875 C 10.140625 -15.046875 10.160156 -14.300781 10.171875 -13.5625 C 10.179688 -12.820312 10.1875 -12.085938 10.1875 -11.359375 C 10.21875 -10.472656 10.238281 -9.578125 10.25 -8.671875 C 10.269531 -7.765625 10.28125 -6.863281 10.28125 -5.96875 C 10.28125 -5.75 10.265625 -5.515625 10.234375 -5.265625 C 10.203125 -5.015625 10.160156 -4.773438 10.109375 -4.546875 C 10.109375 -4.328125 10.039062 -4.109375 9.90625 -3.890625 C 9.738281 -3.578125 9.582031 -3.265625 9.4375 -2.953125 C 9.300781 -2.648438 9.191406 -2.320312 9.109375 -1.96875 C 9.054688 -1.65625 8.972656 -1.335938 8.859375 -1.015625 C 8.742188 -0.703125 8.644531 -0.390625 8.5625 -0.078125 C 7.945312 -0.0234375 7.570312 -0.0195312 7.4375 -0.0625 C 7.300781 -0.101562 7.203125 -0.265625 7.140625 -0.546875 C 7.003906 -0.378906 6.921875 -0.238281 6.890625 -0.125 C 6.554688 -0.175781 6.222656 -0.238281 5.890625 -0.3125 C 5.554688 -0.382812 5.238281 -0.472656 4.9375 -0.578125 C 4.570312 -0.691406 4.289062 -0.914062 4.09375 -1.25 C 3.539062 -2.082031 3.125 -2.863281 2.84375 -3.59375 C 2.695312 -3.894531 2.535156 -4.1875 2.359375 -4.46875 C 2.179688 -4.75 2.007812 -5.039062 1.84375 -5.34375 C 1.757812 -5.488281 1.675781 -5.628906 1.59375 -5.765625 C 1.507812 -5.898438 1.4375 -6.039062 1.375 -6.1875 C 1.320312 -6.65625 1.234375 -7.113281 1.109375 -7.5625 C 0.984375 -8.007812 0.921875 -8.46875 0.921875 -8.9375 C 0.921875 -9.300781 0.925781 -9.65625 0.9375 -10 C 0.957031 -10.351562 0.953125 -10.710938 0.921875 -11.078125 C 0.921875 -11.546875 0.90625 -12.007812 0.875 -12.46875 C 0.84375 -12.925781 0.816406 -13.394531 0.796875 -13.875 C 0.796875 -14.15625 0.800781 -14.429688 0.8125 -14.703125 C 0.820312 -14.984375 0.828125 -15.273438 0.828125 -15.578125 C 0.828125 -15.890625 0.820312 -16.175781 0.8125 -16.4375 C 0.800781 -16.707031 0.796875 -16.992188 0.796875 -17.296875 C 0.796875 -17.515625 0.796875 -17.742188 0.796875 -17.984375 C 0.796875 -18.222656 0.804688 -18.46875 0.828125 -18.71875 C 0.859375 -19.019531 0.875 -19.320312 0.875 -19.625 C 0.875 -19.9375 0.847656 -20.25 0.796875 -20.5625 C 0.734375 -20.894531 0.71875 -21.226562 0.75 -21.5625 C 0.78125 -21.894531 0.796875 -22.242188 0.796875 -22.609375 C 0.796875 -22.742188 0.800781 -22.882812 0.8125 -23.03125 C 0.820312 -23.1875 0.828125 -23.335938 0.828125 -23.484375 C 0.828125 -24.429688 0.820312 -25.367188 0.8125 -26.296875 C 0.800781 -27.234375 0.78125 -28.175781 0.75 -29.125 C 0.71875 -29.59375 0.785156 -30.035156 0.953125 -30.453125 C 1.128906 -30.867188 1.34375 -31.273438 1.59375 -31.671875 C 1.757812 -31.890625 1.90625 -32.125 2.03125 -32.375 C 2.15625 -32.625 2.285156 -32.863281 2.421875 -33.09375 L 2.84375 -33.96875 C 3.175781 -34.550781 3.675781 -34.925781 4.34375 -35.09375 C 4.65625 -35.207031 4.90625 -35.363281 5.09375 -35.5625 L 5.1875 -34.71875 C 5.320312 -34.96875 5.4375 -35.203125 5.53125 -35.421875 C 5.632812 -35.648438 5.753906 -35.875 5.890625 -36.09375 C 6.003906 -36.320312 6.1875 -36.460938 6.4375 -36.515625 C 6.570312 -36.515625 6.695312 -36.554688 6.8125 -36.640625 C 6.925781 -36.722656 7.023438 -36.804688 7.109375 -36.890625 C 7.359375 -37.117188 7.628906 -37.265625 7.921875 -37.328125 C 8.210938 -37.398438 8.539062 -37.453125 8.90625 -37.484375 L 9.484375 -36.0625 L 10.0625 -36.34375 C 11.707031 -37.320312 13.378906 -37.320312 15.078125 -36.34375 C 15.328125 -36.207031 15.550781 -36.054688 15.75 -35.890625 C 15.945312 -35.722656 16.15625 -35.539062 16.375 -35.34375 C 17.238281 -34.5625 17.800781 -33.671875 18.0625 -32.671875 C 18.332031 -31.671875 18.535156 -30.640625 18.671875 -29.578125 C 18.753906 -28.773438 18.8125 -27.960938 18.84375 -27.140625 C 18.875 -26.316406 18.832031 -25.5 18.71875 -24.6875 C 18.664062 -23.96875 18.507812 -23.265625 18.25 -22.578125 C 18 -21.898438 17.640625 -21.28125 17.171875 -20.71875 C 16.953125 -20.445312 16.742188 -20.171875 16.546875 -19.890625 C 16.347656 -19.609375 16.082031 -19.398438 15.75 -19.265625 C 15.613281 -19.203125 15.515625 -19.09375 15.453125 -18.9375 C 15.398438 -18.789062 15.347656 -18.660156 15.296875 -18.546875 Z M 10.15625 -20.84375 C 10.238281 -20.90625 10.300781 -20.941406 10.34375 -20.953125 C 10.382812 -20.960938 10.40625 -20.96875 10.40625 -20.96875 C 10.988281 -21.613281 11.507812 -22.273438 11.96875 -22.953125 C 12.425781 -23.640625 12.78125 -24.382812 13.03125 -25.1875 C 13.3125 -26.082031 13.367188 -26.988281 13.203125 -27.90625 C 13.117188 -28.320312 13.019531 -28.742188 12.90625 -29.171875 C 12.800781 -29.609375 12.632812 -30.023438 12.40625 -30.421875 L 11.828125 -31.328125 C 11.710938 -31.472656 11.597656 -31.609375 11.484375 -31.734375 C 11.378906 -31.859375 11.253906 -31.976562 11.109375 -32.09375 C 10.921875 -32.226562 10.738281 -32.378906 10.5625 -32.546875 C 10.394531 -32.710938 10.160156 -32.820312 9.859375 -32.875 C 10.078125 -30.875 10.160156 -28.878906 10.109375 -26.890625 C 10.054688 -24.898438 10.070312 -22.882812 10.15625 -20.84375 Z M 6.9375 -17.84375 C 6.9375 -17.976562 6.941406 -18.09375 6.953125 -18.1875 C 6.972656 -18.289062 6.984375 -18.382812 6.984375 -18.46875 L 6.984375 -27.90625 C 6.984375 -28.15625 6.960938 -28.410156 6.921875 -28.671875 C 6.878906 -28.941406 6.84375 -29.203125 6.8125 -29.453125 C 6.757812 -29.003906 6.71875 -28.34375 6.6875 -27.46875 C 6.65625 -26.59375 6.640625 -25.628906 6.640625 -24.578125 C 6.640625 -23.535156 6.65625 -22.519531 6.6875 -21.53125 C 6.71875 -20.550781 6.753906 -19.71875 6.796875 -19.03125 C 6.835938 -18.34375 6.882812 -17.945312 6.9375 -17.84375 Z M 6.984375 -10.28125 L 6.984375 -5.3125 C 7.171875 -6.144531 7.226562 -6.972656 7.15625 -7.796875 C 7.09375 -8.617188 7.035156 -9.445312 6.984375 -10.28125 Z M 6.859375 -15.171875 L 7.0625 -15.171875 C 7.007812 -15.304688 6.992188 -15.441406 7.015625 -15.578125 C 7.046875 -15.722656 6.976562 -15.863281 6.8125 -16 C 6.84375 -15.863281 6.859375 -15.722656 6.859375 -15.578125 C 6.859375 -15.441406 6.859375 -15.304688 6.859375 -15.171875 Z M 6.859375 -15.171875 "/></g></g></g></svg>